<svg width="94" height="20" viewBox="0 0 94 20" fill="none" xmlns="http://www.w3.org/2000/svg">
<path d="M16.6667 5.83325H3.33341C2.41294 5.83325 1.66675 6.57944 1.66675 7.49992V16.6666C1.66675 17.5871 2.41294 18.3333 3.33341 18.3333H16.6667C17.5872 18.3333 18.3334 17.5871 18.3334 16.6666V7.49992C18.3334 6.57944 17.5872 5.83325 16.6667 5.83325Z" stroke="#541878" stroke-width="1.5" stroke-linecap="round" stroke-linejoin="round"/>
<path d="M14.1666 1.66675L9.99992 5.83341L5.83325 1.66675" stroke="#541878" stroke-width="1.5" stroke-linecap="round" stroke-linejoin="round"/>
<path d="M37.568 16V5.44H41.728C42.9973 5.44 43.9253 5.696 44.512 6.208C45.0987 6.72 45.392 7.42933 45.392 8.336C45.392 8.89067 45.232 9.38667 44.912 9.824C44.592 10.2507 44.1227 10.5227 43.504 10.64V10.656C44.1867 10.7733 44.7147 11.056 45.088 11.504C45.472 11.952 45.664 12.4747 45.664 13.072C45.664 13.9787 45.3333 14.6933 44.672 15.216C44.0107 15.7387 43.0507 16 41.792 16H37.568ZM39.248 9.984H41.6C42.944 9.984 43.616 9.46667 43.616 8.432C43.616 7.39733 42.944 6.88 41.6 6.88H39.248V9.984ZM39.248 14.576H41.872C42.544 14.576 43.0453 14.4373 43.376 14.16C43.7173 13.8827 43.888 13.4933 43.888 12.992C43.888 12.4907 43.7173 12.1013 43.376 11.824C43.0453 11.5467 42.544 11.408 41.872 11.408H39.248V14.576ZM51.7618 5.28C52.7111 5.28 53.5324 5.46133 54.2258 5.824C54.9191 6.176 55.5058 6.69867 55.9858 7.392L54.8338 8.496C54.4284 7.87733 53.9698 7.43467 53.4578 7.168C52.9564 6.89067 52.3591 6.752 51.6658 6.752C50.8871 6.752 50.3218 6.90133 49.9698 7.2C49.6178 7.49867 49.4418 7.86133 49.4418 8.288C49.4418 8.61867 49.5538 8.90667 49.7778 9.152C50.0124 9.39733 50.4444 9.58933 51.0738 9.728L53.2178 10.208C54.2311 10.4427 54.9511 10.7893 55.3778 11.248C55.8151 11.696 56.0338 12.272 56.0338 12.976C56.0338 13.6267 55.8578 14.192 55.5058 14.672C55.1538 15.1413 54.6631 15.5093 54.0338 15.776C53.4044 16.032 52.6738 16.16 51.8418 16.16C50.7218 16.16 49.7671 15.952 48.9778 15.536C48.1884 15.1093 47.5804 14.5813 47.1538 13.952L48.3378 12.768C48.6684 13.3333 49.1324 13.7973 49.7298 14.16C50.3378 14.512 51.0578 14.688 51.8898 14.688C52.6258 14.688 53.2018 14.56 53.6178 14.304C54.0444 14.0373 54.2578 13.6587 54.2578 13.168C54.2578 12.8693 54.1511 12.6027 53.9378 12.368C53.7351 12.1227 53.3511 11.936 52.7858 11.808L50.4658 11.28C49.5058 11.0773 48.7964 10.7413 48.3378 10.272C47.8791 9.80267 47.6497 9.216 47.6497 8.512C47.6497 7.91467 47.8151 7.37067 48.1458 6.88C48.4764 6.38933 48.9458 6 49.5538 5.712C50.1724 5.424 50.9084 5.28 51.7618 5.28ZM67.1794 13.2C66.8594 14.16 66.31 14.896 65.5314 15.408C64.7527 15.9093 63.846 16.16 62.8114 16.16C61.7874 16.16 60.902 15.9413 60.1554 15.504C59.4194 15.0667 58.8487 14.4427 58.4434 13.632C58.038 12.8107 57.8354 11.84 57.8354 10.72C57.8354 9.6 58.038 8.63467 58.4434 7.824C58.8487 7.00267 59.4194 6.37333 60.1554 5.936C60.902 5.49867 61.782 5.28 62.7954 5.28C63.8407 5.28 64.726 5.49867 65.4514 5.936C66.1767 6.37333 66.6994 7.01867 67.0194 7.872L65.4034 8.592C64.998 7.376 64.1607 6.768 62.8914 6.768C61.8994 6.768 61.1047 7.11467 60.5074 7.808C59.9207 8.49067 59.6274 9.46133 59.6274 10.72C59.6274 11.968 59.91 12.9387 60.4754 13.632C61.0407 14.3253 61.83 14.672 62.8434 14.672C63.494 14.672 64.054 14.5067 64.5234 14.176C65.0034 13.8347 65.3447 13.328 65.5474 12.656L67.1794 13.2ZM82.0334 5.44V6.912H78.4174V16H76.7054V6.912H73.0894V5.44H82.0334ZM92.7076 5.44L88.7876 16H86.7876L82.8676 5.44H84.6916L87.1556 12.464L87.7956 14.56L88.4356 12.48L90.8996 5.44H92.7076Z" fill="#541878"/>
</svg>
