<svg width="24" height="24" viewBox="0 0 24 24" fill="none" xmlns="http://www.w3.org/2000/svg">
<path d="M11.9998 18C11.7051 18 11.4225 17.8946 11.2141 17.7071C11.0057 17.5196 10.8887 17.2652 10.8887 17V5C10.8887 4.73478 11.0057 4.48043 11.2141 4.29289C11.4225 4.10536 11.7051 4 11.9998 4C12.2945 4 12.5771 4.10536 12.7855 4.29289C12.9938 4.48043 13.1109 4.73478 13.1109 5V17C13.1109 17.2652 12.9938 17.5196 12.7855 17.7071C12.5771 17.8946 12.2945 18 11.9998 18Z" fill="black"/>
<path d="M20.8889 20C20.5942 20 20.3116 19.8946 20.1032 19.7071C19.8948 19.5196 19.7778 19.2652 19.7778 19C19.7778 12.83 16.3556 8 12 8C7.64444 8 4.22222 12.83 4.22222 19C4.22222 19.2652 4.10516 19.5196 3.89679 19.7071C3.68841 19.8946 3.4058 20 3.11111 20C2.81643 20 2.53381 19.8946 2.32544 19.7071C2.11706 19.5196 2 19.2652 2 19C2 11.59 6.3 6 12 6C17.7 6 22 11.59 22 19C22 19.2652 21.8829 19.5196 21.6746 19.7071C21.4662 19.8946 21.1836 20 20.8889 20Z" fill="black"/>
</svg>
