<svg width="15" height="15" viewBox="0 0 15 15" fill="none" xmlns="http://www.w3.org/2000/svg">
<path d="M4.50224 7.77581C5.08572 8.96868 6.05266 9.93123 7.24818 10.5093C7.33565 10.5507 7.4324 10.5687 7.52892 10.5614C7.62544 10.5541 7.71839 10.5218 7.79863 10.4676L9.55895 9.2938C9.63681 9.24189 9.72638 9.21022 9.81956 9.20166C9.91275 9.1931 10.0066 9.20792 10.0926 9.24478L13.3858 10.6562C13.4977 10.7037 13.5911 10.7863 13.652 10.8915C13.7128 10.9967 13.7378 11.1189 13.7232 11.2395C13.6191 12.054 13.2217 12.8027 12.6054 13.3453C11.9891 13.8878 11.1961 14.1872 10.375 14.1872C7.83887 14.1872 5.40661 13.1798 3.61329 11.3864C1.81997 9.59312 0.8125 7.16087 0.8125 4.62473C0.812543 3.80361 1.11189 3.01065 1.65448 2.39433C2.19707 1.77802 2.94571 1.38061 3.76021 1.27652C3.88088 1.26192 4.00302 1.28693 4.10824 1.34778C4.21346 1.40863 4.29605 1.50203 4.34357 1.6139L5.75619 4.91C5.79272 4.99525 5.80761 5.08822 5.79952 5.18063C5.79144 5.27303 5.76062 5.362 5.70983 5.43961L4.54008 7.22693C4.48684 7.30734 4.45537 7.40017 4.44874 7.49638C4.4421 7.59258 4.46054 7.68886 4.50224 7.77581V7.77581Z" stroke="black" stroke-linecap="round" stroke-linejoin="round"/>
</svg>
