<svg width="45" height="45" viewBox="0 0 45 45" fill="none" xmlns="http://www.w3.org/2000/svg">
<path d="M33.1733 28.1464L28.1179 24.1741C28.0423 24.1125 27.9551 24.0666 27.8615 24.039C27.7679 24.0114 27.6698 24.0028 27.5728 24.0135C27.4758 24.0243 27.382 24.0542 27.2967 24.1017C27.2114 24.1491 27.1364 24.213 27.0761 24.2898C27.0158 24.3665 26.9714 24.4544 26.9455 24.5485C26.9196 24.6426 26.9126 24.7409 26.9251 24.8376C26.9375 24.9344 26.9691 25.0277 27.0181 25.1122C27.067 25.1966 27.1322 25.2704 27.21 25.3294L30.5966 27.9902H12.277C12.1783 27.9866 12.0799 28.0029 11.9876 28.0381C11.8954 28.0734 11.8111 28.1269 11.74 28.1954C11.6689 28.264 11.6123 28.3461 11.5737 28.4371C11.5351 28.528 11.5151 28.6257 11.5151 28.7245C11.5151 28.8233 11.5351 28.921 11.5737 29.0119C11.6123 29.1028 11.6689 29.185 11.74 29.2536C11.8111 29.3221 11.8954 29.3756 11.9876 29.4109C12.0799 29.4461 12.1783 29.4624 12.277 29.4588H30.5966L27.21 32.1196C27.1322 32.1786 27.067 32.2524 27.0181 32.3368C26.9691 32.4213 26.9375 32.5146 26.9251 32.6114C26.9126 32.7081 26.9196 32.8064 26.9455 32.9005C26.9714 32.9946 27.0158 33.0825 27.0761 33.1592C27.1364 33.2359 27.2114 33.2999 27.2967 33.3473C27.382 33.3947 27.4758 33.4247 27.5728 33.4355C27.6698 33.4462 27.7679 33.4376 27.8615 33.41C27.9551 33.3824 28.0423 33.3365 28.1179 33.2748L33.1733 29.3016C33.2609 29.233 33.3318 29.1453 33.3805 29.0452C33.4292 28.9451 33.4546 28.8353 33.4546 28.724C33.4546 28.6127 33.4292 28.5028 33.3805 28.4028C33.3318 28.3027 33.2609 28.215 33.1733 28.1464Z" fill="#541878"/>
<path d="M32.7198 35.9359H14.4003L17.7949 33.275C17.8745 33.2168 17.9415 33.1432 17.992 33.0585C18.0425 32.9738 18.0755 32.8799 18.0889 32.7822C18.1023 32.6846 18.096 32.5852 18.0702 32.49C18.0445 32.3949 17.9998 32.3059 17.9389 32.2283C17.878 32.1508 17.8022 32.0863 17.7159 32.0386C17.6295 31.991 17.5345 31.9613 17.4364 31.9512C17.3384 31.941 17.2393 31.9507 17.145 31.9797C17.0508 32.0087 16.9634 32.0563 16.8879 32.1198L11.8315 36.092C11.7439 36.1607 11.6731 36.2484 11.6243 36.3484C11.5756 36.4485 11.5503 36.5584 11.5503 36.6697C11.5503 36.781 11.5756 36.8908 11.6243 36.9909C11.6731 37.091 11.7439 37.1786 11.8315 37.2473L16.8879 41.2205C16.9627 41.2878 17.0505 41.339 17.1458 41.371C17.2412 41.403 17.3421 41.4151 17.4423 41.4065C17.5425 41.3979 17.6399 41.3688 17.7284 41.3211C17.8169 41.2733 17.8947 41.2079 17.9569 41.1289C18.0191 41.0498 18.0644 40.9589 18.09 40.8616C18.1157 40.7644 18.1211 40.6629 18.1059 40.5634C18.0907 40.464 18.0553 40.3688 18.0018 40.2836C17.9483 40.1984 17.8779 40.1251 17.7949 40.0683L14.4093 37.4074H32.7288C32.8275 37.4111 32.926 37.3948 33.0182 37.3595C33.1105 37.3243 33.1947 37.2708 33.2658 37.2022C33.337 37.1337 33.3935 37.0515 33.4322 36.9606C33.4708 36.8697 33.4907 36.7719 33.4907 36.6732C33.4907 36.5744 33.4708 36.4766 33.4322 36.3857C33.3935 36.2948 33.337 36.2126 33.2658 36.1441C33.1947 36.0755 33.1105 36.022 33.0182 35.9868C32.926 35.9515 32.8275 35.9352 32.7288 35.9389L32.7198 35.9359Z" fill="#541878"/>
<path d="M5.96037 27.0874C5.76567 27.0874 5.57892 27.1647 5.44115 27.3023C5.30338 27.4398 5.22585 27.6265 5.22559 27.8212V37.5726C5.22559 37.7675 5.303 37.9544 5.4408 38.0922C5.5786 38.23 5.76549 38.3074 5.96037 38.3074C6.15525 38.3074 6.34214 38.23 6.47994 38.0922C6.61774 37.9544 6.69515 37.7675 6.69515 37.5726V27.8212C6.69489 27.6265 6.61736 27.4398 6.47959 27.3023C6.34182 27.1647 6.15507 27.0874 5.96037 27.0874Z" fill="#541878"/>
<path d="M37.4429 16.459C38.6888 15.5987 39.627 14.3627 40.1207 12.9314C40.6143 11.5001 40.6376 9.94848 40.187 8.50305C39.7364 7.05762 38.8356 5.79406 37.6161 4.89681C36.3966 3.99957 34.9222 3.51563 33.4081 3.51562C31.8941 3.51562 30.4197 3.99957 29.2002 4.89681C27.9807 5.79406 27.0799 7.05762 26.6293 8.50305C26.1787 9.94848 26.2019 11.5001 26.6956 12.9314C27.1893 14.3627 28.1275 15.5987 29.3733 16.459C27.8421 16.7866 26.4146 17.4851 25.2162 18.493C24.0178 19.501 23.0851 20.7877 22.5 22.2402C21.9149 20.7876 20.9823 19.5009 19.7839 18.4929C18.5855 17.4849 17.158 16.7865 15.6267 16.459C16.8725 15.5987 17.8107 14.3627 18.3044 12.9314C18.7981 11.5001 18.8213 9.94848 18.3707 8.50305C17.9201 7.05762 17.0193 5.79406 15.7998 4.89681C14.5803 3.99957 13.1059 3.51562 11.5919 3.51562C10.0778 3.51562 8.60344 3.99957 7.38392 4.89681C6.1644 5.79406 5.2636 7.05762 4.81302 8.50305C4.36244 9.94848 4.38567 11.5001 4.87933 12.9314C5.37299 14.3627 6.31122 15.5987 7.55706 16.459C5.42058 16.9144 3.50487 18.0886 2.12959 19.7858C0.754306 21.483 0.00263405 23.6005 0 25.785V37.5725C0 37.7674 0.0774144 37.9543 0.215213 38.0921C0.353012 38.2299 0.539907 38.3073 0.734784 38.3073C0.929661 38.3073 1.11656 38.2299 1.25435 38.0921C1.39215 37.9543 1.46957 37.7674 1.46957 37.5725V25.785C1.47169 23.6472 2.32179 21.5976 3.83333 20.0858C5.34487 18.5741 7.39439 17.7237 9.53217 17.7214H13.6516C15.7894 17.7237 17.8391 18.5741 19.3508 20.0858C20.8625 21.5975 21.7128 23.6471 21.7152 25.785C21.7152 25.9796 21.7925 26.1662 21.9301 26.3038C22.0677 26.4414 22.2543 26.5187 22.4489 26.5187H22.5H22.5511C22.7458 26.5187 22.9325 26.4415 23.0703 26.3039C23.208 26.1663 23.2856 25.9797 23.2858 25.785C23.288 23.6472 24.1381 21.5976 25.6496 20.0858C27.1611 18.5741 29.2107 17.7237 31.3484 17.7214H35.4678C37.6056 17.7237 39.6551 18.5741 41.1667 20.0858C42.6782 21.5976 43.5283 23.6472 43.5304 25.785V37.5725C43.5304 37.7674 43.6078 37.9543 43.7456 38.0921C43.8834 38.2299 44.0703 38.3073 44.2652 38.3073C44.4601 38.3073 44.647 38.2299 44.7848 38.0921C44.9226 37.9543 45 37.7674 45 37.5725V25.785C44.9974 23.6005 44.2457 21.483 42.8704 19.7858C41.4951 18.0886 39.5794 16.9144 37.4429 16.459ZM11.5884 16.2528C10.4746 16.253 9.38581 15.9229 8.45967 15.3043C7.53352 14.6857 6.81163 13.8063 6.38528 12.7774C5.95892 11.7485 5.84727 10.6162 6.06443 9.52385C6.28159 8.43147 6.81781 7.42803 7.60528 6.64042C8.39275 5.85281 9.3961 5.31641 10.4884 5.09905C11.5808 4.8817 12.713 4.99315 13.742 5.41932C14.771 5.84549 15.6505 6.56723 16.2693 7.49327C16.8881 8.4193 17.2184 9.50804 17.2184 10.6218C17.2165 12.1145 16.6228 13.5455 15.5674 14.6011C14.512 15.6567 13.0811 16.2507 11.5884 16.2528ZM33.4036 16.2528C32.2899 16.2528 31.2012 15.9225 30.2752 15.3038C29.3492 14.6851 28.6275 13.8056 28.2013 12.7767C27.7751 11.7477 27.6635 10.6155 27.8808 9.52323C28.0981 8.43092 28.6344 7.42758 29.4219 6.64007C30.2094 5.85256 31.2128 5.31625 32.3051 5.09898C33.3974 4.88171 34.5296 4.99322 35.5585 5.41942C36.5875 5.84561 37.4669 6.56735 38.0856 7.49337C38.7044 8.41938 39.0346 9.50808 39.0346 10.6218C39.0331 12.1134 38.4404 13.5435 37.3864 14.5989C36.3325 15.6544 34.9032 16.2491 33.4116 16.2528H33.4036Z" fill="#541878"/>
<path d="M39.0397 27.0874C38.8451 27.0874 38.6584 27.1647 38.5208 27.3023C38.3832 27.4399 38.3059 27.6266 38.3059 27.8212V37.5726C38.3023 37.6713 38.3186 37.7697 38.3538 37.862C38.3891 37.9543 38.4426 38.0385 38.5111 38.1096C38.5797 38.1807 38.6619 38.2373 38.7528 38.2759C38.8437 38.3146 38.9414 38.3345 39.0402 38.3345C39.139 38.3345 39.2367 38.3146 39.3276 38.2759C39.4185 38.2373 39.5007 38.1807 39.5693 38.1096C39.6378 38.0385 39.6913 37.9543 39.7266 37.862C39.7618 37.7697 39.7781 37.6713 39.7745 37.5726V27.8212C39.7745 27.7247 39.7555 27.6292 39.7185 27.5402C39.6816 27.4511 39.6275 27.3701 39.5592 27.302C39.491 27.2338 39.41 27.1798 39.3208 27.143C39.2317 27.1062 39.1361 27.0873 39.0397 27.0874Z" fill="#541878"/>
</svg>
