<svg width="48" height="48" viewBox="0 0 48 48" fill="none" xmlns="http://www.w3.org/2000/svg">
<g clip-path="url(#clip0_207_548)">
<path d="M0.949676 34.9184C0.286668 35.7168 -0.0503407 36.7362 0.00609684 37.7726C0.0625344 38.8089 0.508255 39.7857 1.25405 40.5074L3.1808 42.4341C3.57483 42.8306 4.04311 43.1456 4.55889 43.3611C5.07467 43.5766 5.62785 43.6884 6.18683 43.6901C7.1347 43.696 8.0525 43.3577 8.76986 42.7381C9.3533 42.2341 9.77867 41.5723 9.9948 40.8322C10.2109 40.0921 10.2086 39.3053 9.98809 38.5665L20.7116 27.843L21.188 28.3193C21.5523 28.6833 22.0463 28.8877 22.5613 28.8877C23.0763 28.8877 23.5702 28.6833 23.9346 28.3193L24.3337 27.9202C24.6975 27.5558 24.9018 27.0619 24.9018 26.5469C24.9018 26.032 24.6975 25.5381 24.3337 25.1736L23.8573 24.6973L28.1436 20.411L32.1447 24.4121L35.1374 27.4048C35.2063 27.4738 35.2882 27.5285 35.3784 27.5658C35.4685 27.6032 35.5651 27.6224 35.6627 27.6224C35.7602 27.6224 35.8568 27.6032 35.947 27.5658C36.0371 27.5285 36.119 27.4738 36.188 27.4048L43.4705 20.1226C43.5395 20.0536 43.5943 19.9717 43.6316 19.8816C43.669 19.7914 43.6882 19.6948 43.6882 19.5973C43.6882 19.4997 43.669 19.4031 43.6316 19.313C43.5943 19.2228 43.5395 19.1409 43.4705 19.072L40.4775 16.0794L27.6089 3.21028L24.6163 0.217669C24.5473 0.148662 24.4654 0.09392 24.3753 0.0565717C24.2851 0.0192234 24.1885 0 24.091 0C23.9934 0 23.8968 0.0192234 23.8067 0.0565717C23.7165 0.09392 23.6346 0.148662 23.5657 0.217669L16.2831 7.5002C16.2141 7.56918 16.1594 7.65107 16.122 7.7412C16.0847 7.83134 16.0655 7.92795 16.0655 8.02551C16.0655 8.12308 16.0847 8.21969 16.122 8.30982C16.1594 8.39996 16.2141 8.48185 16.2831 8.55083L19.2761 11.5434L23.2772 15.5446L18.9906 19.8308L18.0488 18.8891C17.6788 18.5359 17.187 18.3389 16.6755 18.3389C16.164 18.3389 15.6722 18.5359 15.3021 18.8891L14.9031 19.2878C14.7227 19.4681 14.5797 19.6822 14.4821 19.9178C14.3845 20.1535 14.3342 20.406 14.3342 20.6611C14.3342 20.9161 14.3845 21.1687 14.4821 21.4043C14.5797 21.6399 14.7227 21.854 14.9031 22.0344L15.8452 22.9765L5.1217 33.7001C4.38284 33.4797 3.59603 33.4774 2.8559 33.6935C2.11576 33.9096 1.45382 34.335 0.949676 34.9184ZM35.6627 25.8288L33.7207 23.8868L39.9522 17.6553L41.8946 19.5972L35.6627 25.8288ZM24.091 1.79361L26.033 3.73559L22.9171 6.85154L19.8014 9.9675L17.859 8.02551L24.091 1.79361ZM5.83747 35.0856L17.4212 23.5019C17.4902 23.4329 17.5449 23.351 17.5823 23.2609C17.6196 23.1708 17.6388 23.0742 17.6388 22.9766C17.6388 22.879 17.6196 22.7824 17.5823 22.6923C17.5449 22.6021 17.4902 22.5202 17.4212 22.4513L15.9537 20.9838C15.8682 20.8982 15.8202 20.7822 15.8202 20.6613C15.8202 20.5403 15.8682 20.4243 15.9537 20.3388L16.3528 19.9397C16.4397 19.8568 16.5553 19.8105 16.6755 19.8105C16.7956 19.8105 16.9112 19.8568 16.9982 19.9397L18.4653 21.4068C18.5342 21.4758 18.6161 21.5306 18.7063 21.5679C18.7964 21.6053 18.893 21.6245 18.9906 21.6245C19.0881 21.6245 19.1847 21.6053 19.2749 21.5679C19.365 21.5306 19.4469 21.4758 19.5159 21.4068L24.8532 16.0699C24.9222 16.0009 24.9769 15.919 25.0143 15.8289C25.0516 15.7388 25.0708 15.6422 25.0708 15.5446C25.0708 15.447 25.0516 15.3504 25.0143 15.2603C24.9769 15.1701 24.9222 15.0882 24.8532 15.0193L20.852 11.0181L23.9678 7.90216L27.0836 4.78621L38.9017 16.6046L32.6701 22.8362L28.6689 18.835C28.6 18.766 28.5181 18.7113 28.4279 18.6739C28.3378 18.6366 28.2412 18.6174 28.1436 18.6174C28.0461 18.6174 27.9495 18.6366 27.8593 18.6739C27.7692 18.7113 27.6873 18.766 27.6183 18.835L22.281 24.172C22.212 24.2409 22.1573 24.3228 22.1199 24.413C22.0826 24.5031 22.0634 24.5997 22.0634 24.6973C22.0634 24.7948 22.0826 24.8914 22.1199 24.9816C22.1573 25.0717 22.212 25.1536 22.281 25.2226L23.2831 26.2242C23.3685 26.3099 23.4166 26.4259 23.4166 26.5469C23.4166 26.6679 23.3685 26.784 23.2831 26.8696L22.884 27.2687C22.7982 27.3539 22.6822 27.4017 22.5613 27.4017C22.4404 27.4017 22.3244 27.3539 22.2386 27.2687L21.237 26.267C21.168 26.198 21.0861 26.1433 20.996 26.1059C20.9058 26.0686 20.8092 26.0494 20.7116 26.0494C20.6141 26.0494 20.5175 26.0686 20.4273 26.1059C20.3372 26.1433 20.2553 26.198 20.1863 26.267L8.60261 37.8507C8.49665 37.9567 8.42519 38.0922 8.39762 38.2395C8.37004 38.3868 8.38762 38.539 8.44807 38.6761C8.66945 39.1715 8.72544 39.725 8.60777 40.2547C8.49009 40.7844 8.20501 41.2621 7.7947 41.6172C7.28032 42.0337 6.62781 42.241 5.96734 42.1977C5.30688 42.1544 4.68702 41.8637 4.23143 41.3835L2.30468 39.4568C1.82411 39.0015 1.53306 38.3816 1.48968 37.721C1.4463 37.0604 1.65379 36.4078 2.07069 35.8935C2.30754 35.6197 2.60055 35.4 2.9298 35.2494C3.25906 35.0988 3.61687 35.0208 3.97893 35.0207C4.33488 35.021 4.68681 35.0958 5.01215 35.2402C5.14932 35.3003 5.30142 35.3177 5.44863 35.2901C5.59584 35.2625 5.73133 35.1913 5.83747 35.0856Z" fill="#541878"/>
<path d="M48.4838 46.744C48.482 45.0861 47.8226 43.4966 46.6503 42.3243C45.4779 41.152 43.8884 40.4925 42.2305 40.4907H35.6551C33.9971 40.4925 32.4075 41.1519 31.2351 42.3242C30.0628 43.4966 29.4033 45.0861 29.4014 46.744V47.257C29.4014 47.4541 29.4796 47.643 29.619 47.7824C29.7583 47.9217 29.9473 48 30.1443 48H47.7409C47.9379 48 48.1269 47.9217 48.2662 47.7824C48.4056 47.643 48.4838 47.4541 48.4838 47.257V46.744ZM30.8928 46.514C30.9534 45.2914 31.4814 44.1387 32.3677 43.2943C33.254 42.4498 34.4309 41.9781 35.6551 41.9767H42.2305C43.4546 41.9782 44.6314 42.4499 45.5176 43.2943C46.4039 44.1388 46.9318 45.2914 46.9924 46.514H30.8928Z" fill="#541878"/>
<path d="M32.7346 38.7381C32.7346 38.9352 32.8129 39.1241 32.9522 39.2635C33.0916 39.4028 33.2806 39.4811 33.4776 39.4811H44.4076C44.6046 39.4811 44.7936 39.4028 44.9329 39.2635C45.0723 39.1241 45.1506 38.9352 45.1506 38.7381C45.1506 38.541 45.0723 38.3521 44.9329 38.2127C44.7936 38.0734 44.6046 37.9951 44.4076 37.9951H33.4776C33.2806 37.9951 33.0916 38.0734 32.9522 38.2127C32.8129 38.3521 32.7346 38.541 32.7346 38.7381Z" fill="#541878"/>
</g>
<defs>
<clipPath id="clip0_207_548">
<rect width="48" height="48" fill="white"/>
</clipPath>
</defs>
</svg>
