<svg width="48" height="48" viewBox="0 0 48 48" fill="none" xmlns="http://www.w3.org/2000/svg">
<g clip-path="url(#clip0_207_531)">
<path d="M45.1682 39.0206H2.83148C1.27023 39.0206 0 37.7432 0 36.1729V11.2401C0 9.67412 1.27023 8.3999 2.83148 8.3999H45.1682C46.7294 8.3999 47.9999 9.67388 47.9999 11.2401V36.1729C47.9999 37.743 46.7294 39.0206 45.1682 39.0206ZM2.83148 10.0551C2.18281 10.0551 1.65522 10.5867 1.65522 11.2401V36.1729C1.65522 36.8305 2.18281 37.3654 2.83148 37.3654H45.1682C45.8168 37.3654 46.3447 36.8305 46.3447 36.1729V11.2401C46.3447 10.5867 45.8168 10.0551 45.1682 10.0551H2.83148Z" fill="#541878"/>
<path d="M23.9998 33.1848C18.7739 33.1848 14.522 28.9331 14.522 23.7069C14.522 18.4806 18.7739 14.2288 23.9998 14.2288C29.2261 14.2288 33.478 18.4806 33.478 23.7069C33.478 28.9331 29.2261 33.1848 23.9998 33.1848ZM23.9998 15.884C19.6865 15.884 16.1772 19.3932 16.1772 23.7069C16.1772 28.0206 19.6865 31.5298 23.9998 31.5298C28.3133 31.5298 31.8227 28.0206 31.8227 23.7069C31.8227 19.3932 28.3133 15.884 23.9998 15.884Z" fill="#541878"/>
<path d="M1.34554 16.7868C1.14627 16.7868 0.948123 16.7786 0.757522 16.7624L0 16.6979V11.2401C0 9.67412 1.27023 8.3999 2.83148 8.3999H8.29228L8.35624 9.15786C8.37292 9.35402 8.38114 9.55305 8.38114 9.74984C8.3809 13.6301 5.22491 16.7868 1.34554 16.7868ZM2.83148 10.0551C2.18281 10.0551 1.65522 10.5867 1.65522 11.2401V15.1229C4.37741 14.9677 6.56464 12.7786 6.71746 10.0551H2.83148Z" fill="#541878"/>
<path d="M8.29252 39.0206H2.83148C1.27023 39.0206 0 37.7433 0 36.1729V30.7137L0.760186 30.6515C0.952341 30.6359 1.14939 30.6279 1.34577 30.6279C5.22509 30.6279 8.38114 33.7857 8.38114 37.667C8.38114 37.865 8.37268 38.0654 8.35624 38.2624L8.29252 39.0206ZM1.65499 32.2915V36.1729C1.65499 36.8305 2.18259 37.3654 2.83125 37.3654H6.71728C6.56644 34.639 4.37849 32.4471 1.65499 32.2915Z" fill="#541878"/>
<path d="M46.6544 16.7895C42.7754 16.7895 39.6196 13.6316 39.6196 9.75014C39.6196 9.55306 39.6281 9.3538 39.6445 9.15786L39.7085 8.3999H45.1684C46.7297 8.3999 48.0001 9.67388 48.0001 11.2401V16.7008L47.2424 16.7653C47.0516 16.7815 46.8536 16.7895 46.6544 16.7895ZM41.2835 10.0551C41.4364 12.7802 43.6232 14.9701 46.3451 15.1256V11.2401C46.3451 10.5867 45.8173 10.0551 45.1687 10.0551H41.2835Z" fill="#541878"/>
<path d="M45.1683 39.0208H39.7073L39.6438 38.2624C39.6271 38.0656 39.6189 37.8652 39.6189 37.667C39.6189 33.7857 42.775 30.6279 46.6541 30.6279C46.8503 30.6279 47.0475 30.6359 47.2397 30.6514L47.9999 30.7137V36.1729C48 37.7432 46.7296 39.0208 45.1683 39.0208ZM41.2823 37.3656H45.1683C45.817 37.3656 46.3449 36.8307 46.3449 36.1732V32.2918C43.6213 32.4473 41.4334 34.6392 41.2823 37.3656Z" fill="#541878"/>
</g>
<defs>
<clipPath id="clip0_207_531">
<rect width="48" height="48" fill="white"/>
</clipPath>
</defs>
</svg>
