<svg width="727" height="498" viewBox="0 0 727 498" fill="none" xmlns="http://www.w3.org/2000/svg">
<path d="M524.508 490.367L524.407 487.332L524.305 483.859L524.677 478.717L524.474 476.019L524.086 474.333V469.528L524.305 465.616L524.423 463.441L524.052 461.435L523.09 450.223L523.461 447.846L520.997 445.519L520.743 444.946L517.367 437.157L517.637 436.162L517.451 434.476L517.722 433.566L516.776 431.998L516.861 431.053L517.62 431.981L518.633 432.756H519.798H519.899L520.693 432.47L522.989 432.588L524.305 431.711L527.682 428.238L531.362 423.365L532.442 420.887L532.611 419.909L532.695 419.488L532.324 418.324L532.763 417.211L533.843 415.812L533.978 415.289L533.624 413.232L533.843 410.231L533.134 407.298L532.611 406.269L531.868 405.477L530.18 404.87L529.961 404.6L530.653 403.959L531.26 403.42L531.682 402.206L531.919 400.385L532.459 399.778L531.429 398.092V397.283L533.202 393.439L534.704 391.416L534.417 391.011L533.708 390.016L534.232 389.477L543.499 384.739L543.905 383.812L543.55 382.952L542.858 382.682L542.655 382.058L542.993 381.603L543.736 381.721L544.782 382.429V383.205L545.643 383.711L546.471 384.2L547.213 384.014C547.213 384.014 547.348 382.952 547.095 382.648C546.842 382.345 546.791 381.923 547.77 382.261C548.711 382.421 549.678 382.267 550.522 381.822C551.888 381.073 553.347 380.506 554.861 380.136C556.414 379.884 558.006 380.005 559.503 380.49C560.06 380.676 558.963 381.805 558.355 382.176C557.747 382.547 557.308 382.564 557.494 381.738C557.68 380.912 556.397 381.435 555.958 381.738C555.472 382.282 555.176 382.968 555.114 383.694C555.114 384.183 554.185 384.773 553.578 385.11C552.97 385.447 552.902 385.784 553.156 386.138C553.332 386.433 553.415 386.774 553.392 387.116C553.392 387.302 552.413 388.33 551.991 388.971C551.808 389.318 551.764 389.722 551.867 390.1C551.971 390.479 552.214 390.804 552.548 391.011C552.876 391.149 553.235 391.194 553.587 391.14C553.938 391.087 554.268 390.937 554.54 390.708C554.844 390.37 555.451 389.983 555.637 389.494C555.823 389.005 555.637 388.077 556.127 387.808C556.616 387.538 556.549 388.297 556.734 389.325C556.92 390.353 556.245 390.691 555.823 391.011C555.449 391.382 555.136 391.808 554.894 392.275C555.024 392.652 555.109 393.042 555.148 393.439C555.148 394.13 555.688 393.978 556.498 393.843C557.05 393.759 557.572 393.539 558.017 393.203C558.439 392.916 559.419 392.613 559.604 393.051C559.79 393.489 559.3 393.742 558.439 394.13C557.578 394.518 557.781 394.872 558.439 395.007C559.183 395.022 559.92 394.854 560.583 394.518C561.312 394.428 562.049 394.428 562.778 394.518C563.757 394.518 563.571 394.366 563.453 393.928C563.335 393.489 563.014 393.591 562.17 393.591C561.326 393.591 561.427 392.916 561.427 392.427V389.19C561.427 388.853 562.035 388.617 562.356 388.903C562.677 389.19 562.356 390.219 562.356 390.859C562.356 391.5 562.356 392.427 562.913 392.663C563.47 392.899 563.825 393.051 563.825 392.326C563.825 391.601 564.686 390.859 565.175 390.421C565.401 390.209 565.57 389.943 565.664 389.648C565.759 389.353 565.776 389.039 565.715 388.735C565.53 388.212 566.272 387.572 567.184 387.234C568.096 386.897 568.045 387.234 568.281 387.673C568.753 388.644 569.143 389.654 569.446 390.691C569.626 391.979 569.37 393.29 568.72 394.417C567.534 395.323 566.108 395.862 564.618 395.968C562.609 396.356 564.432 397.485 564.736 397.249C565.81 396.777 566.948 396.464 568.113 396.322C569.581 395.699 570.808 394.616 571.607 393.237C572.343 390.492 572.907 387.705 573.295 384.891L573.531 379.985L574.089 370.88L574.561 368.722C574.561 368.722 575.017 365.266 576.114 364.76C577.743 364.181 579.451 363.856 581.179 363.799C582.192 363.883 582.563 363.799 583.019 364.102C583.475 364.406 583.93 364.912 583.39 365.569C582.85 366.227 583.019 366.665 582.749 366.952C582.651 367.151 582.601 367.369 582.601 367.59C582.602 367.811 582.653 368.03 582.75 368.228C582.848 368.427 582.99 368.6 583.165 368.736C583.341 368.871 583.545 368.964 583.762 369.009C585.045 369.16 585.585 369.009 586.142 369.515C586.398 369.812 586.728 370.036 587.098 370.167C587.468 370.297 587.866 370.328 588.252 370.256C589.48 370.297 590.677 370.651 591.73 371.285C592.454 371.802 593.321 372.084 594.211 372.094C594.583 372.037 594.964 372.059 595.327 372.158C595.69 372.257 596.029 372.43 596.321 372.667C596.841 373.095 597.407 373.463 598.009 373.763L598.769 373.966L599.005 374.707L599.833 374.353L600.322 373.561L599.833 373.055H599.039V372.162L599.816 372.364V372.162L599.124 371.555L596.355 370.341L595.494 369.228L594.532 364.726L594.802 362.804L596.49 360.073L596.71 359.331L596.524 358.657L595.849 358.539L595.376 358.792L595.173 358.488L595.545 358.083L595.14 357.831L594.11 358.117L593.029 357.881L591.966 357.207L589.113 354.998L586.885 352.806L584.555 351.12L583.795 350.513L581.786 348.827L580.689 347.445L579.339 345.27L578.579 343.483L578.478 341.797L578.815 339.15L579.727 336.671L580.605 334.985L580.942 334.277L581.786 332.406V331.866L582.614 329.185L583.188 328.444L583.947 326.42L584.184 324.498L584.741 323.318L585.973 320.755L586.75 320.385L589.231 318.243L590.312 316.979L592.135 315.579L594.464 314.484L596.051 314.18L597.739 313.405L597.03 312.022L596.355 310.707L595.376 309.476V309.392L593.772 304.536L593.35 302.058L593.485 300.035L593.89 299.124L595.393 297.657L596.22 296.123L596.794 293.122L597.976 292.077L599.529 291.824L600.086 291.217L600.795 290.458L600.12 289.261L599.36 288.519L599.124 288.03L598.229 286.243L596.895 280.764V280.258L597.064 278.993L597.706 277.459L598.6 276.667L599.799 276.346L601.251 275.436L602.247 275.183L603.209 274.542L605.235 273.227L605.606 272.435L604.289 270.378L603.766 269.72L600.694 266.989L599.563 265.64L598.246 263.432L598.111 263.212L597.25 260.903L596.997 259.604V259.469V259.335L597.165 258.913L597.351 258.475L597.486 258.138L599.174 257.311L600.153 256.266L601.403 256.064L602.702 255.035L604.289 255.339L604.998 254.799L605.167 254.681L606.855 254.462V254.057L605.032 251.967L604.745 251.646V251.292L604.61 250.5L604.357 248.898L604.813 246.251L605.1 245.813L605.876 245.273L608.408 244.784L611.548 242.003L612.527 241.514L615.212 241.008L617.389 240.3L618.622 239.372L619.668 238.563L622.234 237.703L624.108 237.096L625.307 236.017L625.712 236.102L625.914 237.315H626.64L627.501 236.961L627.653 236.641H626.725L627.012 235.731L628.244 234.921H628.328L630.996 234.028L632.194 232.224L632.802 231.785L633.292 231.414L634.169 231.212L634.71 231.077H634.794H636.111L638.272 231.448L639.571 231.077L641.26 229.914L641.698 229.594L642.948 228.97L643.252 228.818H643.42L646.256 227.958L649.228 227.503L650.359 227.891H650.916H651.996L652.84 227.537L653.515 226.896L654.528 224.182V222.344L655.119 222.209L655.372 221.973L655.541 221.821L655.44 221.484L654.849 221.248L654.022 221.535L653.752 221.332L653.38 220.776L653.296 220.624V219.882V219.747L653.701 219.022L654.495 218.483L655.389 218.365L656.706 217.792L657.246 218.095L658.462 217.775L659.863 217.943L662.311 217.842L664.86 218.213L665.957 218.972L667.257 219.427L667.882 219.865L668.472 220.287L669.401 221.45L669.857 223.136L670.346 223.035L670.734 222.951L672.524 222.597H673.486L675.292 223.17L676.001 223.389H676.626H677.031L677.977 222.799L678.838 221.585L679.665 221.062L681.876 220.59L683.564 220.472L684.594 220.641L685.472 221.096L685.911 220.944L687.228 221.13L687.413 220.776L688.139 219.393L689.287 218.635L691.161 218.146L693.778 218.331L697.711 219.191L700.142 220.371L701.138 220.472L703.045 220.186L705.004 220.388L707.181 220.961L710.288 222.293L713.85 223.794V224.131L714.305 224.384L716.669 224.788L718.357 225.986L719.488 226.222L722.51 229.054L723.219 229.981L723.404 230.656L724.046 232.966L723.742 234.348L723.961 235.562L724.907 237.029L725.363 238.715L725.818 242.879L726.612 241.345L726.46 237.973V237.72L726.679 235.815L725.92 235.427L725.734 233.741L725.329 233.202L724.958 232.713L725.126 231.752V231.532L724.569 229.762L724.198 228.599L724.299 228.194L724.974 225.345L724.755 223.406L725.042 220.422V220.101L724.738 219.208L723.05 216.965L721.969 214.925L721.699 213.762L721.564 213.172H721.48L720.045 212.245L714.981 209.851L713.951 208.873L712.989 206.597V206.411L712.229 206.951L711.402 206.664L711.03 205.265L709.714 204.59L709.427 203.663L708.11 202.618V201.741L706.523 199.532L705.561 199.701L704.97 199.161L704.278 198.925H702.961L702.083 198.47H701.476L700.969 198.723L700.564 198.908L698.774 197.914L698.606 197.829H698.217L696.951 197.678L696.664 197.442L696.242 197.104L692.967 196.818H692.275L691.296 196.396L690.503 195.368L689.017 194.575L688.359 193.834L687.785 191.979L684.83 189.467L684.51 188.759L685.472 187.393L685.151 186.634L683.902 187.157H682.653L677.588 188.101H676.71H676.001L674.043 187.022H672.355L670.397 187.41L666.683 188.691L664.1 189.146L659.204 190.006L650.764 191.035L648.316 190.613L646.037 189.467L644.67 189.349L642.492 189.602L640.669 189.804L638.052 189.467L635.554 188.759L634.271 187.882L631.097 184.139L630.675 183.97H623.298L621.12 183.701L619.077 182.976L617.052 181.93L615.364 181.509L614.975 181.408L613.49 179.519L612.949 178.154L612.747 177.614L611.937 176.586L611.042 175.456V175.203L610.485 172.202L610.4 171.663L610.046 169.758L609.894 165.222L610.08 164.379L610.198 163.806L611.717 161.749L611.481 161.243L610.991 160.181L611.228 159.743L612.105 159.608L612.544 159.169L612.325 158.512L611.211 157.332L610.316 155.359L608.881 153.859L607.193 152.948L605.404 152.476H603.884L602.027 152.78L600.339 152.055L598.431 151.296L597.03 151.009L595.747 150.335L594.448 149.02L593.367 147.249L591.156 145.563L588.792 142.9L584.876 141.214L584.015 140.421L581.145 136.172L580.605 135.633L580.368 135.38L577.414 133.694L575.456 131.839L572.198 129.53L568.99 126.613L567.387 124.202L566.053 123.527V123.173L566.678 122.853L566.914 122.735L566.256 121.572L565.513 117.863L564.635 116.177L562.744 112.316L562.66 108.944L562.288 107.612L560.702 103.127L559.351 94.4946L558.203 91.4935L558.034 90.1616V89.4197L554.219 81.7484L551.518 78.9834L550.573 76.7747L548.75 74.6504L543.027 68.0076L538.452 61.938L534.113 57.4869L532.594 55.194L531.176 53.9463L526.905 50.136L523.731 46.764L521.891 44.8251L520.423 43.4931L519.562 42.7344L513.687 36.2434L513.029 35.8893H512.235L511.56 35.4341L509.433 31.59L507.981 29.5162L505.685 26.1442L503.997 24.7449L502.309 22.7385L501.347 21.474L499.658 19.9229H499.574L497.717 18.5404L495.185 16.2643L489.243 11.9819L486.795 10.6668L485.748 9.60459C485.748 9.60459 484.263 10.6836 484.246 11.0714C484.229 11.4592 484.043 13.4824 484.043 13.4824L482.355 15.1684L481.106 15.3201L480.599 17.2759L480.718 18.4224L474.961 24.1042L472.091 26.532L469.677 29.904L465.372 33.9504L465.17 34.4056C465.17 34.4056 465.17 34.4056 465.17 34.5068L464.545 36.766V36.9009V38.1148C464.554 38.3382 464.501 38.5597 464.393 38.7555L463.634 40.2392L463.127 41.2339C463.028 41.4136 462.896 41.5736 462.739 41.706L462.03 42.3129L461.591 42.8356H461.507L461.051 43.392L460.949 43.4931L460.038 44.3867L459.751 44.6228L457.084 46.3088C456.9 46.4175 456.701 46.4972 456.493 46.5448L454.433 47.0843L453.285 47.725C453.083 47.831 452.867 47.9103 452.644 47.961L450.669 48.332L449.453 48.7703L448.103 49.5965L445.706 51.0633C445.527 51.1691 445.333 51.2486 445.132 51.2993L443.123 51.822L442.718 52.2941V52.3784C442.732 52.613 442.68 52.8471 442.566 53.0528L442.093 53.862C441.991 54.0451 441.853 54.2057 441.688 54.3341L439.865 55.8684C439.641 56.0621 439.375 56.2007 439.088 56.273L437.957 56.5765C437.761 56.6013 437.562 56.6013 437.366 56.5765H435.678L435.155 56.998C434.809 57.2738 434.382 57.4279 433.939 57.4363H433.804L431.103 58.0433C430.836 58.1023 430.56 58.1023 430.293 58.0433L427.659 57.7061H426.174L425.786 57.841H425.701L424.013 58.5491L423 58.9706C422.856 59.0412 422.702 59.0923 422.544 59.1223L422.004 59.2235C421.814 59.2486 421.621 59.2486 421.43 59.2235L419.506 59.1055L417.362 59.4258C417.068 59.4807 416.765 59.4731 416.474 59.4033C416.184 59.3336 415.911 59.2034 415.674 59.0212L415.505 58.8863H414.813H414.087L413.023 59.1898L411.977 59.9316C411.828 60.027 411.669 60.1061 411.504 60.1677L411.099 60.5049C411.099 60.9938 411.099 61.4659 411.099 61.9548C411.125 62.6734 410.986 63.3885 410.694 64.0455L409.225 67.1983C408.722 68.0206 408.158 68.804 407.537 69.5418C406.483 71.0331 405.278 72.4117 403.941 73.6556C403.217 74.1063 402.415 74.4206 401.578 74.5829C400.649 74.8864 399.332 75.173 398.809 75.9317C398.232 76.5881 397.811 77.3661 397.577 78.2078C397.459 79.0517 397.391 79.9018 397.374 80.7537C397.374 82.4397 397.611 84.5472 396.192 86.0309C394.774 87.5145 392.664 88.2733 391.82 89.9761C390.976 91.679 392.681 93.3481 391.955 95.0341C391.793 95.5052 391.537 95.9389 391.203 96.3096C390.87 96.6803 390.466 96.9804 390.014 97.1922C389.101 97.6268 388.104 97.857 387.093 97.8666C384.764 97.9677 382.485 97.5294 380.155 97.698C379.109 97.7738 378.107 98.1484 377.268 98.777C376.995 99.0297 376.752 99.3125 376.542 99.62L375.226 101.121C374.567 101.879 373.369 101.795 372.356 101.879C371.304 101.905 370.253 101.786 369.233 101.525C367.106 100.783 366.447 98.7264 364.877 97.5294C364.084 96.9391 363.089 96.6847 362.109 96.8213C360.909 97.0118 359.689 97.0514 358.479 96.9393C357.382 96.8212 357.112 96.0288 356.352 95.5399C355.904 95.2241 355.391 95.0111 354.85 94.9161C354.328 94.8999 353.807 94.9799 353.314 95.1521C352.925 95.3888 352.557 95.6597 352.216 95.9614C351.894 96.3881 351.539 96.7884 351.153 97.1585C350.225 97.7635 349.153 98.1125 348.047 98.1701C346.359 98.3892 344.096 100.176 342.391 98.9793C341.463 98.3218 340.568 97.6643 339.69 96.9561C338.878 96.4125 338.115 95.7975 337.411 95.1184C337.192 94.8486 337.563 94.4103 337.563 94.1068V92.4208C337.563 91.8138 335.96 90.954 335.335 90.7348C334.872 90.6513 334.396 90.6861 333.951 90.836C333.405 91.0133 332.836 91.1099 332.263 91.1226C331.403 90.4851 330.343 90.1742 329.275 90.2458C328.177 90.3301 327.232 90.8697 326.168 90.9708C324.998 90.9437 323.847 90.6678 322.792 90.1616C320.783 89.504 318.808 88.7285 316.799 88.0709C315.842 87.8513 314.9 87.5697 313.98 87.2279L310.604 85.6768C309.642 85.2216 308.747 84.6315 307.835 84.1257C307.211 83.7885 305.776 83.1815 305.607 82.524C305.208 80.6721 304.926 78.7969 304.763 76.9096C304.763 76.1341 304.662 75.3585 304.51 74.5998C304.358 73.8411 304.391 72.3237 303.48 72.1214C302.925 71.992 302.347 71.992 301.792 72.1214C301.437 72.1214 300.661 72.3911 300.34 72.1214C299.479 71.5819 298.922 71.0086 299.091 70.0645C299.092 69.6157 299.172 69.1707 299.327 68.7494L300.239 67.3331C300.424 67.0465 300.914 66.8442 300.897 66.507C300.897 65.8663 300.779 65.7989 300.036 65.5123C299.028 65.3302 298.05 65.0067 297.132 64.5513C296.305 63.86 296.525 63.017 296.204 62.174C295.9 61.222 295.311 60.3862 294.516 59.7799C294.157 59.571 293.784 59.3852 293.402 59.2235C293.165 59.0886 292.169 58.5997 292.237 58.2793C292.304 57.959 292.423 57.3352 292.524 56.8631C292.529 56.3918 292.449 55.9234 292.287 55.4806C292.287 55.1434 292.608 54.7219 292.49 54.4184C292.372 54.1149 291.68 53.7103 291.41 53.5417C289.873 52.5975 287.51 51.5185 286.852 49.9674C286.509 49.1113 286.359 48.1903 286.413 47.2698C286.451 47.0615 286.435 46.8469 286.367 46.6464C286.299 46.4458 286.181 46.2658 286.025 46.1233C285.718 45.7544 285.295 45.4991 284.826 45.3983C284.291 45.3093 283.741 45.3919 283.256 45.6344C282.706 45.8998 282.143 46.1362 281.568 46.3425C280.628 46.5614 279.761 47.0204 279.052 47.6744C278.614 48.2477 278.968 49.529 277.972 49.7988C276.836 50.0122 275.663 49.8891 274.596 49.4447C273.556 49.4026 272.515 49.5105 271.507 49.7651C271 49.7651 270.24 47.961 270.038 47.6238L268.485 45.0274C268.349 44.673 268.298 44.2923 268.333 43.9146C268.333 43.274 268.535 43.0716 268.974 42.5321C269.303 42.2097 269.686 41.9472 270.105 41.7566C270.262 41.6193 270.376 41.4396 270.433 41.2391C270.49 41.0387 270.488 40.8261 270.426 40.6269C270.352 40.1843 270.171 39.7665 269.897 39.4107C269.623 39.0549 269.265 38.772 268.856 38.5869C267.816 38.296 266.745 38.1318 265.666 38.098C265.26 38.098 264.653 38.0979 264.383 37.8282L262.965 36.4457C262.291 35.8181 261.691 35.1168 261.175 34.355C260.659 33.5414 260.095 32.7589 259.487 32.0115C259.116 31.6237 258.829 31.3371 258.879 30.8144C258.93 30.2918 259.2 29.9714 259.166 29.4994C259.187 28.6307 258.984 27.7714 258.575 27.0041C258.018 26.2285 257.478 25.3181 256.347 25.0146C255.307 24.9205 254.258 24.9946 253.241 25.2338C252.162 25.4695 251.045 25.4695 249.966 25.2338C249.476 25.0478 248.997 24.8339 248.531 24.5931C248.024 24.3233 248.16 23.8344 247.906 23.4298C247.274 22.6396 246.529 21.9465 245.695 21.3729C245.045 20.7744 244.363 20.2116 243.652 19.6869C242.704 19.0956 241.796 18.4422 240.934 17.7311C240.262 17.1301 239.771 16.3535 239.516 15.4887C239.212 14.6457 239.516 13.8027 239.297 12.926C238.984 12.0366 238.601 11.174 238.149 10.3464C238.021 9.9437 237.975 9.51951 238.014 9.0988C237.962 8.62354 237.842 8.15806 237.659 7.71627C237.507 7.22733 236.427 6.03028 235.701 6.24946C234.677 6.3831 233.676 6.66125 232.73 7.07559C232.038 7.46337 230.468 8.07033 230.113 8.76159C229.759 9.45285 230.012 10.6668 228.949 11.0714C227.908 11.3061 226.819 11.1813 225.859 10.7174C225.319 10.5488 224.762 10.4139 224.171 10.2621C223.604 10.2192 223.033 10.2705 222.483 10.4139C221.436 10.6305 220.417 10.9642 219.444 11.4086C218.486 11.7202 217.554 12.1093 216.659 12.5719C215.703 13.1088 214.697 13.5493 213.654 13.887C212.623 14.249 211.508 14.3017 210.447 14.0388C209.531 13.7166 208.732 13.1297 208.151 12.3528C207.222 10.6668 207.678 8.39068 207.678 6.62038C207.678 5.91226 207.847 4.93437 207.273 4.47915C206.489 3.82397 205.545 3.38769 204.538 3.21466C204.092 3.05415 203.626 2.95214 203.154 2.91118L200.942 3.01234C199.953 3.07129 198.961 3.07129 197.971 3.01234C196.661 3.02197 195.357 2.82859 194.105 2.4391C193.5 2.23031 192.956 1.87728 192.518 1.41064C192.14 0.924934 191.655 0.532661 191.1 0.26416C190.994 1.98819 190.653 3.68976 190.088 5.32215C189.733 6.14829 189.159 6.907 188.805 7.74999C188.45 8.59299 188.197 9.43599 187.809 10.2621C187.006 11.9539 185.909 13.4897 184.567 14.7975C183.793 15.4846 182.89 16.0125 181.911 16.351C180.932 16.6894 179.896 16.8319 178.861 16.7701C177.882 16.7701 176.92 16.6689 175.958 16.7701C175.764 16.7492 175.568 16.7683 175.382 16.8263C175.197 16.8844 175.025 16.98 174.877 17.1073C174.641 17.3433 173.797 17.8997 174.101 18.2032C173.662 18.2032 173.51 18.7764 173.476 19.0799C173.375 20.1084 173.257 21.1537 173.156 22.199C173.087 22.9418 172.832 23.6552 172.413 24.2728C171.974 25.0315 171.13 25.9588 171.231 26.8018C171.374 27.6171 171.231 28.4569 170.826 29.179C169.872 30.8848 169.048 32.6601 168.361 34.4899C167.986 35.1876 167.895 36.0031 168.108 36.766C168.242 37.2283 168.52 37.6359 168.901 37.9294C169.222 38.1991 169.948 38.5195 169.61 38.941L170.032 39.0758L168.918 43.4088L169.205 43.6449L170.016 44.1675C170.324 44.3638 170.68 44.4744 171.045 44.4879L172.565 44.589L173.662 45.432L173.409 45.5332C173.138 45.6203 172.896 45.7793 172.709 45.9931C172.521 46.2069 172.396 46.4675 172.345 46.7471L172.193 48.0285C172.17 48.2725 172.217 48.518 172.328 48.7366L172.801 49.6808C172.665 49.901 172.604 50.1589 172.625 50.4167C172.646 50.6745 172.749 50.9187 172.919 51.1139L173.274 51.5859L173.713 52.6987V52.8167L173.831 53.0528C173.974 53.3092 174.178 53.5264 174.426 53.6852C174.673 53.844 174.956 53.9395 175.249 53.9632C175.329 54.337 175.553 54.6642 175.873 54.8736C175.952 54.9286 176.037 54.9738 176.127 55.0085C176.118 55.0982 176.118 55.1886 176.127 55.2783L176.431 56.6945C176.467 56.9149 176.566 57.12 176.717 57.2846L177.342 58.0096C177.579 58.2981 177.906 58.4997 178.271 58.5828L178.642 58.7008L178.963 59.1055C179.121 59.3048 179.317 59.4702 179.54 59.5919C179.764 59.7136 180.009 59.789 180.263 59.8136H180.634C180.801 60.0461 181.018 60.238 181.269 60.3752C181.521 60.5124 181.8 60.5913 182.086 60.606H182.457C182.481 60.827 182.558 61.0388 182.682 61.2237C182.805 61.4086 182.971 61.5611 183.166 61.6682L183.453 61.8368C183.85 62.0877 184.319 62.2004 184.787 62.1571L185.006 62.3932C185.19 62.5953 185.414 62.7567 185.664 62.867C185.914 62.9774 186.185 63.0342 186.458 63.0338H187.032C187.349 63.052 187.666 63.0002 187.961 62.8821L188.636 62.6124L188.906 62.4606L189.243 62.7472L189.041 63.3205C188.923 63.635 188.927 63.9822 189.052 64.294C189.177 64.6058 189.414 64.8599 189.716 65.0065L190.358 65.3774C190.626 65.535 190.926 65.6328 191.235 65.664H191.995L192.181 65.782L192.924 66.2373C192.991 66.4601 193.113 66.6627 193.278 66.8273L193.7 67.2657C193.97 67.5298 194.31 67.7112 194.679 67.7884C194.899 68.0061 195.164 68.1722 195.456 68.2743C195.749 68.3764 196.06 68.412 196.367 68.3785L196.604 68.5808C196.92 68.856 197.317 69.0216 197.735 69.0529H198.022V69.2046C198.175 69.4369 198.379 69.6307 198.619 69.7711C198.859 69.9115 199.129 69.9946 199.406 70.0139L200.183 70.1319L200.976 70.6714C201.385 70.9404 201.872 71.065 202.36 71.0255C202.589 71.2745 202.873 71.4656 203.19 71.5829C203.507 71.7002 203.848 71.7403 204.184 71.6999L204.909 71.6156L205.331 71.8348C205.502 71.9215 205.684 71.984 205.872 72.0202L207.796 72.408C208.064 72.4586 208.339 72.4586 208.606 72.408C208.784 72.655 209.017 72.857 209.286 72.9975C209.556 73.1381 209.855 73.2134 210.16 73.2173H210.733C210.952 73.3708 211.199 73.4797 211.459 73.5376L213.148 73.9591L213.266 74.1614C213.404 74.3689 213.583 74.5462 213.792 74.6824C214.001 74.8186 214.235 74.911 214.481 74.9539L214.684 75.173L215.123 75.5608C215.419 75.8022 215.774 75.9595 216.152 76.0161H216.608L216.287 76.3532C216.147 76.5083 216.045 76.6951 215.993 76.8977C215.94 77.1002 215.937 77.3126 215.984 77.5166C216.055 77.7284 216.168 77.924 216.316 78.0919C216.464 78.2598 216.643 78.3966 216.845 78.4945L217.385 78.7979C217.773 79.0406 218.228 79.1528 218.685 79.1183L218.921 79.3375C219.294 79.6544 219.765 79.833 220.255 79.8432C220.338 79.9145 220.428 79.9767 220.525 80.0287L220.997 80.2985H221.099C221.118 80.6165 221.243 80.919 221.453 81.1583L221.774 81.4955C222.092 81.8351 222.525 82.0452 222.989 82.0856C223.23 82.1195 223.475 82.1195 223.715 82.0856C223.9 82.1104 224.087 82.1104 224.272 82.0856C224.327 82.2126 224.389 82.3364 224.458 82.4566L224.357 82.7432C224.264 82.9992 224.264 83.2796 224.357 83.5356V83.6705C224.482 84.0961 224.735 84.4729 225.083 84.7495L225.538 85.171C225.414 85.384 225.356 85.629 225.371 85.875C225.386 86.1211 225.474 86.3572 225.623 86.5535L225.809 86.8233C225.971 87.0274 226.172 87.1968 226.401 87.3214C226.631 87.446 226.883 87.5231 227.142 87.5483L228.172 87.6832L227.952 87.9023C227.864 88.004 227.79 88.1175 227.733 88.2395L227.041 89.622L226.872 89.7232C226.619 89.9087 226.383 90.0604 226.281 90.1616L226.146 90.2627C225.891 90.4519 225.715 90.7292 225.652 91.0408C225.59 91.3523 225.646 91.6759 225.809 91.9487L226.129 92.4714L225.69 93.719C225.505 93.837 225.437 93.8539 225.437 93.8708H225.133L224.627 93.9888H224.424C224.135 94.0414 223.864 94.1686 223.639 94.3579C223.414 94.5472 223.242 94.7919 223.141 95.0678L222.972 95.5736L222.804 95.7253L222.348 96.13C222.152 96.3051 222.011 96.5336 221.943 96.7875C221.788 96.8612 221.646 96.9578 221.521 97.0742C221.25 97.3575 221.017 97.6748 220.829 98.0183L220.694 98.2206C220.592 98.36 220.522 98.5192 220.487 98.6878C220.452 98.8564 220.453 99.0305 220.491 99.1985L220.812 100.615C220.844 100.903 220.93 101.184 221.065 101.441C221.191 101.615 221.333 101.779 221.487 101.93C221.372 102.312 221.327 102.712 221.352 103.11L221.217 103.194L220.829 103.481C220.577 103.66 220.388 103.914 220.288 104.206C220.298 104.267 220.298 104.33 220.288 104.391C220.132 104.783 220.058 105.201 220.069 105.622C220.069 106.044 220.069 106.482 220.069 106.92C220.069 107.679 220.153 108.471 220.221 109.247L219.664 109.938C219.483 110.165 219.377 110.442 219.36 110.731V111.27C218.913 111.583 218.591 112.042 218.448 112.568V112.703C218.291 113.04 218.227 113.413 218.263 113.782C217.964 113.686 217.676 113.562 217.402 113.411C216.541 112.889 215.342 111.388 214.464 111.169C213.793 111.018 213.109 110.933 212.422 110.916C211.916 110.807 211.388 110.866 210.919 111.085L210.345 111.489C209.437 112.426 208.607 113.435 207.864 114.507C207.425 115.064 206.868 115.57 206.395 116.092H206.311C205.874 116.531 205.468 116.998 205.095 117.492C204.696 118.193 204.245 118.864 203.745 119.498C203.327 119.898 202.77 120.121 202.191 120.121C201.613 120.121 201.056 119.898 200.638 119.498C200.363 119.166 200.109 118.817 199.879 118.453C199.178 117.567 198.61 116.584 198.191 115.536C197.94 115.055 197.646 114.598 197.313 114.17C197.008 113.942 196.665 113.771 196.3 113.664C195.534 113.362 194.735 113.153 193.92 113.041C193.717 113.041 193.413 112.939 193.194 112.939C192.265 112.939 191.303 113.091 190.375 113.125C189.699 113.125 188.973 113.125 188.315 113.209C187.818 113.256 187.327 113.346 186.846 113.479C186.458 113.597 186.104 113.833 185.715 113.951C185.327 114.069 185.192 114.086 184.922 114.153L184.787 113.934C183.993 113.091 183.605 113.243 182.052 112.906C181.816 112.198 181.36 111.22 180.161 111.405C179.942 110.882 179.419 110.781 178.811 110.748C178.68 110.401 178.45 110.099 178.151 109.881C177.851 109.662 177.493 109.536 177.123 109.517C177.123 108.927 176.549 108.522 175.434 108.826C174.793 107.662 174.574 107.14 172.953 107.696L171.484 106.499C171.4 106.027 171.484 104.897 170.471 104.813C170.43 104.686 170.357 104.572 170.26 104.48C170.163 104.389 170.044 104.323 169.914 104.29C169.922 104.139 169.896 103.987 169.838 103.847C169.779 103.707 169.69 103.582 169.577 103.481C169.704 103.262 169.752 103.006 169.712 102.756L167.703 102.52C167.596 102.571 167.508 102.653 167.45 102.756C165.639 102.827 163.832 102.54 162.132 101.913C161.363 101.676 160.571 101.523 159.769 101.458L154.873 101.711C154.585 101.616 154.303 101.503 154.029 101.373C152.846 100.512 151.719 99.577 150.653 98.5747L148.137 99.1142L147.175 101.879L145.335 102.689C144.084 102.246 142.787 101.947 141.469 101.795C140.321 101.795 139.14 101.964 137.975 101.947C136.81 101.93 135.949 101.694 134.953 101.694C134.953 101.694 133.873 101.964 133.721 101.98C133.012 102.098 131.729 102.301 131.036 102.334L129.838 102.25C129.061 102.25 128.285 102.149 127.508 102.132H126.647C126.529 102.132 123.271 100.648 123.153 100.581C122.14 100.008 121.313 99.1142 120.3 98.5578C119.963 98.3844 119.613 98.2378 119.253 98.1195C118.308 97.7148 117.363 97.3102 116.4 96.9393C115.554 96.5993 114.678 96.3396 113.784 96.1637C113.607 96.1101 113.426 96.0706 113.243 96.0457C112.18 96.0457 111.049 96.1974 109.985 96.1468L107.993 95.8434L105.478 95.0847C105.318 95.003 105.165 94.907 105.022 94.7981C104.285 94.2822 103.518 93.8093 102.726 93.3818C101.798 92.9603 100.751 92.6063 99.7721 92.2353L99.4345 92.0667C98.8437 91.7464 96.3114 90.465 96.0582 90.1784C95.8285 89.9745 95.6193 89.7486 95.4336 89.504C94.2519 88.2564 93.1209 86.975 92.0573 85.6768C91.5143 85.0924 91.0176 84.4667 90.5718 83.8054C90.559 83.5981 90.59 83.3904 90.6627 83.1958C90.7354 83.0012 90.8482 82.824 90.9938 82.6757L91.7366 82.5746C91.956 82.3048 92.2261 82.035 92.4287 81.7484C92.6206 81.3511 92.8406 80.968 93.0871 80.602C93.3066 80.3997 93.6948 80.2648 93.9312 80.0624L94.3026 79.6578C94.7409 79.3295 95.274 79.152 95.8219 79.152C96.751 79.1638 97.6789 79.079 98.5904 78.8991L98.8943 78.5113C98.8943 78.5113 98.7255 78.1067 98.7086 78.0898C97.8645 77.23 96.6659 76.5893 95.8219 75.6957H95.0285L92.1755 77.0782C91.3808 77.0547 90.5947 76.9068 89.8459 76.6399C88.6304 76.1172 87.4149 75.4765 86.2332 74.9539L85.7437 74.8527L84.7139 74.6504C83.9125 74.6646 83.1123 74.7209 82.3168 74.819C81.5233 74.937 80.6286 75.1899 79.869 75.3754C78.4516 75.2019 77.1328 74.5611 76.1213 73.5545C75.9694 72.8632 75.6149 71.2615 75.598 71.2109L75.1759 70.6714C74.8383 69.9127 73.4878 69.6936 72.6268 69.5081C71.3101 69.2552 69.9596 69.036 68.6597 68.7325C67.5017 68.4993 66.3705 68.1491 65.2834 67.6872C64.3325 67.1509 63.4722 66.4681 62.7344 65.664C62.1135 64.8903 61.2194 64.3835 60.2359 64.2478C59.6957 64.2478 59.1724 64.2478 58.5478 64.2478C58.4127 64.2478 57.9907 64.0792 57.9063 64.2478L57.3154 64.8042C56.6454 65.498 55.9291 66.1458 55.1715 66.7431C54.3117 67.4035 53.2265 67.7002 52.1497 67.5692C51.3416 67.4746 50.5479 67.2821 49.7863 66.996C48.8916 66.5407 48.0982 66.0349 47.1697 65.5291C45.4816 64.6018 44.3336 62.8147 42.2066 62.5281C41.613 62.385 40.9939 62.385 40.4003 62.5281C39.9663 62.6745 39.5567 62.8848 39.1848 63.1519C38.5433 63.5059 38.3576 63.3205 37.6148 63.3879C37.1014 63.4925 36.5831 63.5713 36.0618 63.624C35.5722 63.624 34.9476 63.5228 34.61 63.8263C34.272 64.0529 33.9893 64.3526 33.7828 64.703C33.5295 65.31 33.2595 65.9169 32.9893 66.5239C32.7192 67.1308 32.753 67.0297 32.1284 67.2488C30.4482 68.0326 28.8903 69.0548 27.5029 70.2836C26.9888 70.4456 26.4549 70.5364 25.916 70.5534L24.5655 70.7557C23.5362 70.9078 22.5926 71.4148 21.8983 72.1888L21.7632 72.408C21.5132 72.7028 21.2363 72.9737 20.936 73.2173C20.3958 73.6388 19.7037 73.976 19.2479 74.4143C19.1466 74.4143 17.9311 76.1003 17.8636 76.1003C17.1884 76.9433 16.4625 77.7863 15.7534 78.5956C15.1241 79.3734 14.417 80.0852 13.6433 80.72L12.833 81.1077L12.0058 81.4955C11.3136 81.6979 10.554 81.7821 9.84496 82.0013C9.56251 82.0543 9.28559 82.1333 9.01777 82.2374C8.34251 82.6251 7.66726 82.9961 6.99201 83.4007L5.96224 84.0245C5.28699 84.3112 3.76766 84.7664 3.008 85.0024C2.04167 85.2042 1.1015 85.5153 0.205688 85.9297C0.560198 86.132 1.1004 86.3681 1.42114 86.6041C2.01199 87.0762 2.31586 88.9476 2.48467 89.6052C3.29498 90.4988 4.07152 91.4429 4.89871 92.3196C5.16271 92.5141 5.41629 92.7224 5.65838 92.9435C5.92598 93.5941 6.03029 94.3003 5.96224 95.0004L4.66237 96.8887C4.40915 97.091 1.58996 98.7096 1.11728 98.9793C1.04145 99.4031 1.04145 99.8369 1.11728 100.261L1.99511 101.087C2.6366 101.087 4.59485 100.766 5.11817 100.783C6.93107 101.09 8.76599 101.248 10.6046 101.255C11.8689 100.668 13.0779 99.968 14.2172 99.1648C14.357 99.0596 14.5036 98.9639 14.6562 98.8782C15.1121 98.7438 15.5825 98.6646 16.0573 98.6421C16.4456 98.6421 16.952 98.8782 17.3234 98.9625L19.0116 100.261C19.4197 100.916 19.679 101.653 19.7712 102.419C19.7712 103.329 22.2528 103.177 22.2528 103.177L23.789 104.408C23.789 104.408 25.6966 104.56 27.0302 104.56C28.3638 104.56 28.1782 106.246 28.1782 106.246C28.1782 106.246 27.7899 107.932 27.6042 108.859C27.4 109.524 26.9999 110.111 26.4562 110.545C25.0018 111.183 23.4596 111.598 21.8814 111.776C20.7509 111.767 19.6226 111.677 18.5051 111.506C18.2906 111.58 18.0704 111.637 17.8467 111.675L10.9591 112.518L10.2164 112.737C9.58005 113.182 9.04506 113.757 8.64638 114.423C8.72748 114.83 8.78385 115.241 8.81519 115.654C8.81519 115.806 8.68015 115.991 8.68015 116.143C8.68015 116.598 9.01777 117.138 9.05153 117.525L8.84896 118.267C8.66326 118.891 8.13994 119.076 8.08929 119.953C8.08929 120.139 8.08929 120.392 8.08929 120.56C8.08929 120.729 8.91648 122.044 8.96713 122.145H9.1697C9.65926 121.909 10.2332 121.673 10.7059 121.403C11.1786 121.133 11.3812 120.864 11.7526 120.678L12.3772 120.56C13.0204 120.611 13.6493 120.777 14.2341 121.049C14.875 120.945 15.4856 120.704 16.0235 120.341L17.239 117.981L17.104 117.542L15.1626 116.767C15.1123 116.608 15.0998 116.44 15.1262 116.276C15.1525 116.113 15.2171 115.957 15.3145 115.822L15.8885 115.519C16.4118 115.401 18.8934 115.283 19.5518 115.232L20.4296 115.603C20.7138 116.933 20.8497 118.29 20.8347 119.65C20.8347 119.65 21.1048 120.155 21.1217 120.189C21.389 120.649 21.6095 121.135 21.7801 121.639L22.3878 122.044C23.0363 122.064 23.6813 121.943 24.2785 121.69C25.8907 121.973 27.3371 122.852 28.3301 124.151C28.6505 124.594 28.9436 125.056 29.2079 125.534C29.5793 125.652 29.5118 126.562 29.9001 126.647L34.8294 128.164C35.1333 128.012 33.5464 125.753 34.0698 125.686L35.5891 125.062C36.0449 124.893 36.4838 124.708 36.9396 124.556C37.3954 124.404 37.7161 124.37 38.0538 124.236C38.3914 124.101 38.9485 123.78 39.3874 123.561C39.3874 123.561 39.6575 123.747 39.6575 123.763C39.877 124.084 39.9951 124.472 40.1977 124.809C40.8546 126.126 41.6588 127.365 42.5949 128.501C43.3044 128.653 44.0318 128.704 44.7557 128.653L45.8698 128.467L48.1995 129.074C48.1995 129.074 49.3474 129.074 49.7357 128.467C50.1001 127.978 50.5523 127.561 51.0693 127.237L52.7575 127.085L53.5171 124.927C54.1667 125.014 54.8057 125.167 55.4247 125.382C56.3048 125.648 57.2014 125.857 58.1089 126.006C59.4425 126.309 58.8685 127.995 57.5349 128.619C56.2012 129.243 56.9609 131.232 57.1466 132.16C57.3323 133.087 59.2399 133.391 59.2399 133.391L61.5695 131.806C61.9203 131.806 62.264 131.905 62.5621 132.089C62.8602 132.274 63.1011 132.538 63.2577 132.851C63.1055 133.534 63.1055 134.242 63.2577 134.925L63.9161 135.953L64.9458 136.661L66.1275 136.881L66.4483 137.218L65.9925 139.41C66.7015 139.41 67.4105 139.224 68.1195 139.174C68.4503 139.132 68.7839 139.223 69.048 139.426L70.1284 141.112L70.6011 141.382C70.9908 141.464 71.3856 141.521 71.7828 141.551C72.4243 141.635 73.1502 141.719 73.7579 141.854C74.4476 142.106 75.1095 142.428 75.733 142.815L76.3408 143.709L78.0289 143.102C78.299 143.254 78.9067 143.439 79.1093 143.574L79.6664 144.113C79.6664 144.113 79.9027 144.94 79.9027 144.956C80.0261 145.857 80.0994 146.763 80.1222 147.671C79.8285 149.387 79.1345 151.01 78.0964 152.409C78.0964 152.409 76.6615 153.757 76.6446 153.774C76.1888 154.078 75.885 154.196 75.3954 154.466L72.897 155.848C71.2088 156.876 69.3687 157.939 67.6468 159.001C65.2834 160.434 62.92 161.918 60.6242 163.435C60.1805 163.78 59.7184 164.101 59.2399 164.396C58.801 164.632 57.1973 165.121 56.5558 165.34C56.1782 165.438 55.8063 165.556 55.4416 165.694L55.0027 166.082C55.0027 166.082 54.8339 166.082 54.7832 166.268C54.3864 167.419 53.9184 168.546 53.3821 169.639C53.0114 169.954 52.6225 170.247 52.2173 170.516C51.7615 170.921 50.5291 172.067 50.2252 172.489C49.9214 172.91 49.7357 173.197 49.4149 173.652L47.7268 175.962C47.7268 175.962 47.4905 177.463 47.5073 177.648C47.5806 177.909 47.6767 178.163 47.7943 178.407C48.292 178.601 48.7769 178.826 49.2461 179.081L49.7863 179.705L49.8876 180.261C49.8876 180.582 49.6175 180.919 49.6006 181.239C49.6198 181.804 49.6706 182.366 49.7526 182.925L50.3603 183.65C50.816 183.893 51.2836 184.112 51.7614 184.308L55.2728 183.937C56.0831 184.392 56.9609 184.948 57.7712 185.353L58.6997 185.572C59.3074 186.398 59.8983 187.258 60.5229 188.051C60.0165 188.826 59.2737 189.871 58.8348 190.664C58.8348 190.664 58.7335 191.439 58.7166 191.507L59.7126 193.193C59.1718 193.764 58.7271 194.419 58.3958 195.132C58.3958 195.132 58.1764 196.379 58.1764 196.396C58.1764 196.413 58.4971 197.728 58.4971 197.728C58.4971 197.728 59.5269 198.723 59.5438 198.74L63.2914 200.965C64.0005 201.404 64.355 201.707 65.1146 202.095C65.5029 202.28 69.9596 202.601 70.618 202.719C71.6013 203.097 72.5549 203.548 73.4709 204.068C73.4709 204.068 74.6189 205.416 74.6357 205.45C74.889 205.821 75.9018 208.266 76.02 208.367C76.5133 208.776 77.0321 209.153 77.5731 209.496L80.6962 211.773C81.4852 212.419 82.2403 213.105 82.9583 213.829C83.5829 214.504 83.9543 215.347 84.6464 216.021C85.3385 216.696 86.3345 217.539 86.976 218.129C88.2421 218.129 89.5758 218.129 90.825 218.331C91.6594 218.44 92.4877 218.592 93.3065 218.786L98.7424 220.422C99.8228 220.725 100.43 220.843 101.494 221.197C102.558 221.551 102.743 221.686 103.537 222.007L107.639 223.693C108.783 224.11 109.868 224.677 110.863 225.379C112.433 225.581 112.551 225.379 113.699 226.34H116.096C117.035 226.475 117.924 226.847 118.679 227.419C119.243 227.927 119.752 228.492 120.199 229.105C121.598 229.19 123.002 229.19 124.402 229.105C125.001 228.934 125.57 228.672 126.09 228.329C126.85 229.223 127.576 230.15 128.386 231.027C128.686 231.314 129.054 231.521 129.455 231.627C129.857 231.733 130.279 231.735 130.682 231.634C130.682 232.426 130.581 233.235 130.581 234.028C130.581 234.517 130.581 234.854 130.007 235.107C129.433 235.36 128.319 234.281 127.711 234.095C126.495 233.674 127.711 235.478 127.998 235.781C128.316 236.024 128.655 236.238 129.011 236.422C130.256 237.102 131.451 237.868 132.59 238.715C132.87 239.097 133.045 239.546 133.095 240.017C133.145 240.487 133.07 240.963 132.877 241.396C132.398 243.207 132.137 245.069 132.1 246.942C132.1 247.988 131.357 248.477 130.412 249.168C129.146 250.18 130.074 251.764 130.8 252.793C131.155 253.282 131.07 254.175 130.327 254.175C129.939 254.175 129.551 254.175 129.163 254.277C128.774 254.378 128.099 254.277 127.474 254.277C126.478 254.277 125.786 254.175 125.179 254.816C124.475 255.508 123.571 255.962 122.596 256.114C121.279 256.367 122.781 257.8 123.17 258.121C123.559 258.627 123.761 259.253 123.744 259.891C123.744 259.975 122.056 262.133 121.921 262.353C121.164 263.597 120.68 264.988 120.502 266.433C120.505 266.675 120.455 266.916 120.356 267.137C120.256 267.359 120.11 267.557 119.928 267.717C119.745 267.877 119.53 267.996 119.297 268.065C119.064 268.134 118.819 268.153 118.578 268.119C117.481 268.119 117.953 268.658 116.485 268.658C114.797 268.658 114.476 270.597 114.003 271.575C113.53 272.553 112.906 272.688 112.467 271.811C112.298 271.44 111.555 271.103 111.235 270.732C110.914 270.361 110.914 269.4 109.8 269.198C108.685 268.995 108.972 268.658 108.55 267.883C108.128 267.107 107.386 267.158 106.457 267.343C105.134 267.326 103.819 267.145 102.541 266.804C101.875 266.518 101.169 266.336 100.447 266.264C98.3135 266.458 96.1664 266.458 94.0324 266.264C92.3443 266.062 91.6353 266.787 90.2173 267.343C88.5601 267.774 86.8631 268.034 85.1528 268.119C84.0494 268.234 82.9811 268.572 82.0129 269.113C81.3349 269.452 80.754 269.956 80.3248 270.58C80.4429 270.749 81.6584 272.721 81.6922 272.755L83.7348 273.851C84.2581 274.003 86.0644 274.104 86.7397 274.222C87.4149 274.34 87.7357 274.559 88.2253 274.677C88.557 274.66 88.8895 274.66 89.2213 274.677L96.4803 276.481L97.8139 277.206H99.502C101.197 277.22 102.889 277.35 104.566 277.594C105.865 278.051 107.089 278.698 108.196 279.516C108.949 280.314 109.524 281.262 109.884 282.298C109.908 282.743 109.779 283.183 109.518 283.545C109.257 283.907 108.88 284.169 108.449 284.287C107.47 284.54 108.128 285.619 108.635 285.973C109.068 286.309 109.43 286.727 109.698 287.204C109.867 287.491 111.251 291.014 111.387 291.284C111.522 291.554 111.64 293.425 111.792 293.914C112.031 294.436 112.419 294.875 112.906 295.179L113.936 295.752L117.717 296.679C118.46 296.848 118.882 296.915 119.608 297.135C120.334 297.354 122.191 298.096 123.136 298.45C124.436 298.939 125.736 299.478 127.052 299.917C128.065 300.254 129.146 300.523 130.176 300.81L134.396 302.041L134.936 302.614C135.172 303.187 135.156 303.862 135.341 304.435L135.763 305.126C136.073 305.644 136.516 306.069 137.046 306.357C137.316 306.509 137.738 306.627 137.975 306.795C138.474 307.198 138.942 307.638 139.376 308.111C139.562 308.363 139.376 308.633 139.562 308.869C139.67 309.059 139.794 309.24 139.933 309.409C139.933 309.51 139.933 309.645 140.085 309.746C140.237 309.847 140.406 310.302 140.423 310.319C141.455 310.948 142.526 311.511 143.63 312.005C143.816 312.005 144.052 312.089 144.238 312.157C144.492 312.252 144.716 312.416 144.882 312.63C145.049 312.845 145.153 313.101 145.183 313.371C145.031 313.826 144.001 314.045 143.647 314.467C143.647 314.703 144.035 315.124 144.187 315.276C144.473 315.549 144.79 315.787 145.132 315.984L145.808 316.288C146.774 316.379 147.749 316.282 148.678 316.001C149.509 316.37 150.265 316.89 150.906 317.535C151.075 317.687 151.243 317.906 151.429 318.041C151.615 318.176 151.902 318.328 152.104 318.462C152.307 318.597 152.51 318.783 152.712 318.918C153.489 319.406 154.295 319.845 155.126 320.233C157.068 321.177 157.642 321.211 158.502 323.166C158.692 323.505 158.773 323.894 158.734 324.28C158.695 324.666 158.537 325.031 158.283 325.325C158.283 325.325 158.283 325.847 158.283 325.864C158.283 325.881 158.604 326.269 158.654 326.336C158.705 326.404 159.009 326.943 159.178 327.247C158.949 327.832 158.796 328.444 158.722 329.067L159.212 329.624L159.853 329.877C160.055 329.969 160.281 329.993 160.498 329.944C160.714 329.895 160.909 329.777 161.052 329.607C161.342 329.199 161.739 328.879 162.199 328.68C162.368 328.68 163.786 328.68 164.006 328.68C164.98 328.661 165.947 328.502 166.876 328.208C167.348 328.022 167.787 327.786 168.26 327.634C168.412 327.634 168.665 327.634 168.783 327.516C169.29 327.314 169.762 327.078 170.269 326.892C170.775 326.707 170.843 326.707 171.113 326.606C171.636 326.404 172.126 326.134 172.666 325.931C173.206 325.729 173.409 325.712 173.746 325.561C174.354 325.274 174.911 324.92 175.434 324.633C175.958 324.347 176.329 324.279 176.751 324.077C177.528 323.723 178.271 323.217 179.098 322.93C180.699 322.403 182.361 322.085 184.044 321.986C184.258 321.97 184.472 321.97 184.686 321.986L185.209 322.138C185.489 322.439 185.722 322.78 185.901 323.15C186.002 323.402 185.901 323.689 186.137 323.942C186.644 324.734 187.218 324.347 187.64 324.684C188.062 325.021 188.349 325.645 188.838 325.965C189.851 325.965 190.526 324.852 190.965 324.279C191.403 324.169 191.861 324.169 192.299 324.279L192.924 324.667C193.036 324.927 193.065 325.216 193.008 325.493C192.907 326.184 192.822 326.876 192.738 327.567C192.738 327.803 192.738 328.056 192.738 328.275C192.738 328.494 192.569 328.713 192.552 328.916L192.687 329.489C192.706 329.707 192.752 329.922 192.822 330.13C193.099 330.606 193.502 330.997 193.987 331.259C194.218 331.372 194.472 331.431 194.73 331.431C194.987 331.431 195.242 331.372 195.473 331.259L195.642 330.871L196.148 330.585H196.654C197.009 330.787 197.701 331.226 198.14 331.124C198.579 331.023 198.967 330.197 199.744 330.028C200.472 329.935 201.204 329.885 201.938 329.877C202.462 329.877 203.002 329.708 203.525 329.624C204.263 329.842 204.98 330.124 205.669 330.467C206.555 330.858 207.484 331.141 208.438 331.31C209.062 331.428 210.784 331.58 211.156 332.17C211.527 332.76 211.578 333.063 211.831 333.502C212.084 333.94 212.54 334.429 212.574 335.188L212.185 335.407C211.619 335.36 211.055 335.281 210.497 335.171C209.746 335.157 209.014 335.414 208.438 335.896C208.151 336.25 207.948 336.772 207.644 337.093C207.375 337.304 207.08 337.479 206.766 337.615C206.105 337.96 205.416 338.247 204.707 338.475C204.538 338.475 204.302 338.593 204.133 338.678C203.974 338.74 203.83 338.834 203.71 338.954C203.589 339.074 203.494 339.217 203.431 339.375C203.368 339.533 203.337 339.702 203.342 339.872C203.347 340.042 203.386 340.209 203.458 340.364C203.621 340.805 203.819 341.234 204.048 341.645C204.89 342.49 205.812 343.252 206.8 343.921C207.712 344.562 209.164 345.388 209.332 346.45C208.939 346.597 208.516 346.643 208.1 346.585C207.036 345.793 205.77 346.012 204.572 345.573C204.099 344.747 203.255 343.584 201.905 344.191C201.443 344.427 201.022 344.734 200.655 345.101C199.862 346.096 199.288 347.192 198.511 348.187C198.41 348.288 198.326 348.456 198.224 348.558L197.904 348.726L197.414 348.962C195.836 348.831 194.279 348.52 192.772 348.035C192.772 348.035 192.164 348.035 192.046 348.035C191.928 348.035 191.658 347.917 191.472 347.9C191.173 347.854 190.868 347.873 190.577 347.954C190.286 348.036 190.015 348.178 189.784 348.372C189.784 348.372 189.294 349.131 189.277 349.148C189.261 349.355 189.261 349.564 189.277 349.771C189.181 350.148 189.051 350.514 188.889 350.867C188.409 351.215 187.947 351.586 187.505 351.98L187.319 352.284C187.184 352.874 187.994 353.97 188.264 354.475C188.534 354.981 188.703 355.335 188.94 355.774C189.176 356.212 189.21 356.212 189.311 356.431C189.412 356.65 189.412 356.802 189.48 356.971C189.658 357.652 189.93 358.304 190.29 358.91C190.819 359.59 191.382 360.243 191.978 360.865C192.344 361.395 192.788 361.867 193.295 362.265C194.024 362.729 194.78 363.151 195.557 363.529C196.824 364.483 198.209 365.271 199.676 365.873C201.128 365.873 201.803 364.187 203.052 363.748H203.576C203.938 364.067 204.271 364.417 204.572 364.794C204.968 365.123 205.324 365.496 205.635 365.906C205.765 366.161 205.917 366.404 206.091 366.631C206.634 367.075 207.142 367.56 207.61 368.081C207.61 368.081 207.931 369.042 207.931 369.093C208.016 369.751 207.323 370.273 206.952 370.779C207.224 372.012 207.603 373.219 208.083 374.387C208.201 374.539 208.404 374.691 208.522 374.842C208.64 374.994 208.758 375.213 208.893 375.382C209.175 375.625 209.425 375.902 209.636 376.208C209.991 376.309 210.328 376.461 210.666 376.545C211.004 376.629 211.24 376.663 211.527 376.731C212.152 376.882 212.776 377.118 213.401 377.287C213.637 377.523 213.603 377.742 213.705 378.012C213.913 378.684 214.233 379.317 214.65 379.883C215.027 380.151 215.451 380.345 215.899 380.457C216.534 380.498 217.172 380.498 217.807 380.457C218.569 380.452 219.329 380.542 220.069 380.726C220.223 380.874 220.333 381.06 220.39 381.266C220.39 381.435 219.934 381.62 219.748 381.721C218.296 382.514 217.081 382.025 215.629 382.581C215.376 382.682 215.106 382.868 214.869 382.986C213.543 383.592 212.426 384.577 211.662 385.818C211.467 386.188 211.229 386.533 210.953 386.847C210.548 387.201 209.889 387.386 209.518 387.791C209.147 388.195 208.927 388.769 208.319 389.224C207.996 388.985 207.768 388.638 207.678 388.246C207.678 387.875 207.678 387.454 207.678 387.083C207.678 386.712 207.543 386.442 207.509 386.122C207.489 385.394 207.427 384.667 207.323 383.947C207.323 383.576 206.918 383.373 206.665 383.087L206.125 382.918C205.59 382.986 205.074 383.158 204.606 383.424C204.18 383.801 203.774 384.201 203.39 384.621C202.985 385.059 202.529 386.071 201.702 386.088C200.645 385.575 199.557 385.13 198.444 384.756C198.444 384.756 197.718 384.756 197.566 384.756C197.414 384.756 196.958 384.604 196.671 384.587C196.24 384.571 195.81 384.64 195.405 384.79C195.099 384.964 194.852 385.226 194.696 385.541C194.54 385.856 194.481 386.211 194.527 386.56C194.475 387.124 194.509 387.692 194.629 388.246C194.629 388.448 194.814 388.667 194.882 388.87C195.034 389.342 195.321 390.792 195.945 391.095C196.482 391.305 197.063 391.375 197.634 391.298L199.457 392.225C199.997 392.225 200.841 391.635 201.55 391.5C201.974 391.608 202.371 391.803 202.715 392.073C202.428 392.663 201.381 393.675 201.516 394.332C201.651 394.99 202.056 394.973 202.462 395.209C202.62 395.337 202.789 395.449 202.968 395.546C203.356 395.698 203.61 395.546 203.93 395.951C204.074 396.249 204.127 396.584 204.082 396.912C204.082 397.013 203.93 397.114 203.913 397.215C203.897 397.317 204.268 398.278 204.487 398.48C204.824 398.695 205.187 398.865 205.568 398.986C205.899 399.206 206.264 399.371 206.648 399.475C207.266 399.987 207.733 400.657 207.999 401.414L207.729 401.987C206.986 402.139 206.04 402.931 205.939 403.572V403.926C206.209 404.234 206.496 404.527 206.8 404.802C207.151 404.903 207.517 404.937 207.881 404.904C208.553 404.91 209.209 405.109 209.771 405.477C209.822 405.588 209.848 405.709 209.848 405.831C209.848 405.953 209.822 406.074 209.771 406.185C209.616 406.632 209.341 407.028 208.978 407.331L208.471 407.568C208.312 407.854 208.177 408.153 208.066 408.461C207.729 409.22 207.374 409.978 207.104 410.754C206.969 411.091 206.901 411.445 206.783 411.783C206.665 412.12 206.327 412.71 206.142 413.182C206.026 413.529 205.936 413.884 205.872 414.244C205.831 414.319 205.797 414.398 205.77 414.48C205.77 415.273 206.716 415.795 206.311 416.655C206.04 417.211 205.483 417.481 205.061 417.92C204.806 418.303 204.612 418.724 204.487 419.167C204.487 419.167 204.487 419.757 204.487 419.774C204.887 420.815 205.408 421.806 206.04 422.725C206.631 423.534 207.323 424.259 207.864 425.085C207.994 425.257 208.112 425.437 208.218 425.625C208.342 426.032 208.432 426.45 208.488 426.872C208.463 427.305 208.463 427.738 208.488 428.17C208.64 428.912 208.826 429.637 209.012 430.362L210.126 431.559L210.328 431.424L211.392 430.548C212.084 429.991 212.725 429.452 213.418 428.946C213.857 428.626 214.329 428.305 214.836 427.968C215.342 427.631 215.376 427.631 215.629 427.445L218.364 425.591C218.685 425.385 218.965 425.122 219.191 424.815L219.714 424.124C220.103 423.601 221.014 422.438 221.234 422.168C221.453 421.898 221.943 421.696 222.28 421.494C222.764 421.219 223.226 420.909 223.665 420.567C224.159 420.14 224.622 419.678 225.049 419.184L225.488 418.712C225.578 418.626 225.657 418.53 225.724 418.425L226.079 417.886C226.231 417.65 226.383 417.414 226.551 417.195L226.872 416.857C227.164 416.596 227.425 416.302 227.649 415.981V415.879L230.029 413.738C230.057 413.745 230.086 413.745 230.113 413.738L230.502 413.367L230.687 413.165L230.957 412.845H231.92C232.965 412.955 234.02 412.762 234.958 412.288L236.207 411.479L237.423 410.703H237.524C238.074 410.478 238.532 410.074 238.824 409.557L239.381 408.326C239.639 407.702 239.804 407.043 239.871 406.37C239.894 406.166 239.927 405.964 239.972 405.763C239.972 405.426 240.107 405.342 240.614 404.853L240.867 404.6L241.897 403.555C242.69 402.746 243.433 401.97 244.243 401.228C244.742 400.772 245.266 400.345 245.813 399.947L246.505 399.407C246.893 399.104 247.214 398.8 247.535 398.497C247.856 398.193 248.193 397.907 248.514 397.671L249.443 396.979L249.797 396.71C250.24 396.36 250.583 395.901 250.793 395.378L250.894 395.159C250.996 394.99 251.097 394.788 251.215 394.552C251.333 394.29 251.469 394.037 251.62 393.793C253.398 392.998 255.27 392.431 257.191 392.107C257.868 392.009 258.55 391.947 259.234 391.921C259.31 392.018 259.395 392.109 259.487 392.191L259.656 392.377C259.966 392.693 260.299 392.986 260.652 393.253L261.698 394.012L262.559 394.636C263.054 394.983 263.643 395.169 264.247 395.169C264.852 395.169 265.441 394.983 265.936 394.636L266.121 394.518L267.236 393.995C268.282 393.506 269.244 393.017 270.173 392.495C270.48 392.351 270.755 392.148 270.981 391.896C271.207 391.643 271.38 391.348 271.49 391.028C272.121 391.043 272.743 390.873 273.279 390.539L274.781 389.527L275.018 389.376C275.517 389.133 275.96 388.789 276.318 388.364L277.314 387.015C277.956 386.197 278.474 385.288 278.85 384.318C279.086 383.694 279.339 383.07 279.593 382.463L279.761 382.041C280.129 381.089 280.417 380.108 280.622 379.108V378.889C280.622 378.889 280.622 378.804 280.622 378.754L281.551 377.911C282.981 376.601 284.517 375.412 286.143 374.353C286.97 373.814 287.831 373.274 288.641 372.752L289.35 372.263C289.674 371.998 290.032 371.777 290.414 371.605C292.541 371.099 294.803 370.644 297.318 370.172L299.006 369.852C299.398 369.766 299.768 369.596 300.088 369.355C300.409 369.113 300.673 368.805 300.863 368.452V368.351C301.032 368.132 301.218 367.896 301.387 367.643C301.569 367.345 301.784 367.068 302.028 366.817C304.037 365.721 306.046 364.676 308.156 363.647L309.945 362.72L310.604 362.4C310.823 362.265 311.076 362.164 311.347 362.029C312.147 361.707 312.902 361.282 313.592 360.764L314.115 360.343C314.887 359.834 315.547 359.174 316.056 358.404C316.225 358.134 316.377 357.814 316.546 357.51C316.754 357.026 317.026 356.572 317.356 356.161L317.829 355.689C319.061 354.425 320.344 353.11 321.526 351.727C322.204 350.884 322.83 350 323.4 349.08L323.518 348.895L324.548 348.591C325.362 348.408 326.195 348.318 327.029 348.322H327.654C328.683 348.223 329.688 347.949 330.625 347.512L331.402 347.209L333.275 346.568C334.677 346.062 336.01 345.59 337.411 345.236C339.37 344.747 341.244 344.107 343.05 343.55L343.961 343.247C344.773 342.959 345.549 342.58 346.274 342.117L347 341.712C347.828 341.275 348.623 340.779 349.38 340.229C351.178 338.929 353.043 337.725 354.968 336.621C356.386 335.828 357.99 335.12 359.543 334.429L360.151 334.176L362.869 332.945C363.831 332.49 364.81 332.052 365.789 331.63L369.165 330.163L369.807 329.91C370.635 329.64 371.415 329.242 372.12 328.73C373.706 327.449 375.344 326.117 376.897 324.734C377.589 324.111 378.231 323.537 378.94 323.048L379.48 322.61C379.839 322.273 380.249 321.994 380.695 321.784L382.957 321.042L383.329 320.907H383.464H384.561H386.351L390.385 321.211H390.638C391.198 321.294 391.767 321.294 392.327 321.211C392.803 321.113 393.264 320.948 393.694 320.722L393.897 320.621C394.221 320.522 394.555 320.454 394.893 320.418C395.586 320.332 396.266 320.162 396.918 319.912L397.56 319.643C398.38 319.331 399.175 318.959 399.94 318.53L402.557 316.962C402.78 316.847 402.968 316.673 403.099 316.459C403.23 316.245 403.299 315.999 403.299 315.748L403.62 315.293C403.805 315.034 403.883 314.714 403.84 314.399L404.262 313.877L405.072 314.838C406.379 316.175 407.822 317.373 409.377 318.412L411.892 319.896C412.683 320.422 413.423 321.021 414.104 321.683C414.745 322.374 415.302 323.116 415.927 323.824C416.195 324.192 416.432 324.581 416.636 324.987C416.873 325.323 417.145 325.634 417.446 325.915C418.081 326.641 418.782 327.307 419.539 327.904C420.401 328.482 421.209 329.137 421.953 329.86C422.633 330.454 423.362 330.99 424.131 331.462C424.519 331.748 425.026 331.849 425.431 332.119C425.802 332.38 426.08 332.752 426.224 333.181C426.41 333.552 426.832 333.839 427.018 334.21C427.204 334.581 427.491 335.053 427.761 335.491C428.267 336.267 428.757 337.059 429.229 337.851C430.17 339.384 431.382 340.733 432.808 341.83C434.361 343.078 435.813 344.461 437.451 345.658C438.278 346.265 439.139 346.905 439.983 347.495C440.827 348.085 441.283 348.777 442.076 349.367C442.974 349.886 443.812 350.502 444.574 351.205C445.185 351.929 445.909 352.55 446.718 353.042C447.64 353.524 448.536 354.053 449.403 354.627C450.196 355.2 450.888 355.909 451.665 356.499C452.347 357.115 453.075 357.679 453.842 358.185C454.72 358.707 455.531 359.196 456.493 359.685L451.901 360.596C451.361 360.728 450.851 360.963 450.399 361.287C449.822 361.585 449.162 361.68 448.525 361.557C448.052 361.557 447.681 362.197 447.225 362.349C446.528 362.527 445.84 362.741 445.165 362.99C444.456 363.276 443.798 363.664 443.14 364.001C442.917 364.145 442.667 364.24 442.405 364.281C442.143 364.321 441.876 364.306 441.62 364.237C441.62 364.912 441.62 365.131 440.776 365.502C440.166 365.736 439.539 365.928 438.902 366.075C438.447 366.21 437.721 365.755 437.299 365.923L435.408 366.665C435.172 366.766 434.851 366.463 434.598 366.463C434.345 366.486 434.1 366.555 433.872 366.665C433.327 366.93 432.812 367.252 432.335 367.626C432.129 367.796 431.972 368.017 431.88 368.267C431.88 368.537 431.88 368.688 431.508 368.773C430.913 368.848 430.338 369.043 429.82 369.346C429.632 369.565 429.399 369.742 429.137 369.864C428.875 369.986 428.59 370.051 428.301 370.054C427.879 370.054 427.491 370.627 427.22 370.863C426.838 371.139 426.521 371.496 426.292 371.909C426.098 372.375 425.783 372.783 425.38 373.089C424.992 373.426 425.38 373.915 424.722 374.033C424.064 374.151 423.625 374.218 423.591 374.741C423.548 375.23 423.6 375.722 423.743 376.191C423.844 376.528 423.557 377.102 423.473 377.439C423.358 377.784 423.358 378.156 423.473 378.501C423.658 379.057 423.861 379.631 424.064 380.187C424.266 380.743 424.722 380.828 424.79 381.148C424.857 381.468 424.418 382.075 424.3 382.379C424.182 382.682 424.739 382.716 424.806 382.834C424.874 382.952 424.806 383.222 424.806 383.34C425.117 383.694 425.489 383.991 425.904 384.216C426.663 384.672 427.288 385.312 428.081 385.717L431.559 387.403C432.353 387.698 433.131 388.036 433.889 388.415C434.226 388.634 435.172 389.055 435.34 389.376C435.509 389.696 435.34 389.865 435.256 390.033C435.172 390.202 435.408 390.337 435.475 390.438C435.75 390.823 435.961 391.25 436.1 391.702C436.16 392.163 436.354 392.597 436.657 392.95C437.037 393.328 437.45 393.672 437.889 393.978C438.227 394.231 438.734 394.113 439.122 394.299C439.551 394.594 440.024 394.822 440.523 394.973L442.481 395.243C442.953 395.264 443.411 395.403 443.815 395.647C444.204 395.944 444.663 396.136 445.148 396.204C445.537 396.204 446.482 396.204 446.583 396.727L446.887 398.042L447.242 399.508C447.242 399.778 448.204 400.25 448.44 400.436C449.224 401.07 449.958 401.763 450.635 402.509C451.901 403.774 453.049 405.106 454.214 406.421C454.849 407.04 455.301 407.824 455.519 408.684C455.736 409.544 455.711 410.447 455.446 411.294C454.72 413.081 452.07 413.823 450.179 414.666C449.318 415.053 448.491 415.509 447.714 415.964C446.921 416.511 446.051 416.938 445.132 417.228C443.005 417.667 440.844 417.447 438.7 417.768C436.683 418.278 434.637 418.661 432.572 418.914C431.441 418.914 430.31 418.914 429.196 418.914C428.151 418.913 427.119 419.144 426.174 419.589C425.204 420.009 424.159 420.227 423.101 420.229C422.086 420.201 421.069 420.257 420.063 420.398C419.185 420.6 417.868 420.786 417.362 421.443C416.855 422.101 416.906 422.961 416.771 423.837C416.742 424.314 416.539 424.763 416.199 425.099C415.86 425.435 415.408 425.634 414.931 425.658C413.833 425.81 412.753 425.658 411.656 425.793C410.654 425.899 409.644 425.686 408.769 425.186C407.706 424.697 407.469 426.417 407.402 426.872C407.171 427.725 407.046 428.602 407.03 429.485C407.148 430.399 407.318 431.305 407.537 432.2C407.727 433.079 408.069 433.918 408.55 434.678C409.122 435.363 409.749 436 410.423 436.583C411.082 437.241 411.318 438.269 412.01 438.792C412.755 439.414 413.571 439.946 414.441 440.377C415.437 440.9 416.433 441.405 417.395 442.063C418.358 442.721 419.32 442.586 419.911 443.159C420.249 443.523 420.559 443.912 420.839 444.322C421.126 444.693 420.839 445.047 421.515 445.199C422.19 445.351 422.73 445.199 423.203 445.199C423.634 445.341 424.048 445.534 424.435 445.772C425.348 446.174 426.291 446.506 427.254 446.767C428.132 447.003 429.212 446.969 430.124 447.172C431.153 447.312 432.129 447.712 432.96 448.335C433.681 448.993 434.48 449.559 435.34 450.021C436.268 450.421 437.221 450.759 438.193 451.033C438.682 451.176 439.144 451.398 439.561 451.69C439.898 452.01 439.831 452.364 439.898 452.735C440.05 453.561 441.114 454.202 440.506 455.045C440.228 455.383 440.025 455.775 439.908 456.196C439.792 456.617 439.766 457.058 439.831 457.49C439.904 458.354 440.045 459.211 440.253 460.053C440.453 460.478 440.75 460.852 441.119 461.145C441.488 461.437 441.919 461.64 442.38 461.739C443.387 462.004 444.357 462.395 445.267 462.902C445.999 463.469 446.498 464.285 446.668 465.195C446.677 465.654 446.727 466.111 446.82 466.561C447.025 466.963 447.256 467.351 447.512 467.724C448.053 468.434 448.855 468.901 449.74 469.022C450.715 469.32 451.707 469.556 452.711 469.73C453.779 469.91 454.876 469.775 455.868 469.342C456.854 468.975 457.89 468.759 458.941 468.702C459.413 468.702 459.987 468.702 460.443 468.702C460.931 468.608 461.396 468.419 461.81 468.145C462.639 467.597 463.615 467.311 464.609 467.326C465.603 467.341 466.57 467.656 467.381 468.23C467.756 468.478 468.042 468.839 468.197 469.26C468.351 469.682 468.367 470.142 468.242 470.573C468.082 471.369 468.082 472.189 468.242 472.984C468.457 473.865 468.926 474.662 469.593 475.277C470.403 475.952 471.483 475.749 472.547 475.867C475.214 476.171 474.235 478.396 475.299 479.796C475.517 480.234 475.842 480.611 476.244 480.892L477.628 481.566C478.348 482.076 478.971 482.71 479.468 483.437C480.925 484.657 482.317 485.951 483.638 487.315C484.237 488.019 484.763 488.782 485.208 489.591C485.613 490.451 485.883 491.277 486.272 492.188C486.505 493.019 486.905 493.795 487.448 494.467C487.99 495.14 488.664 495.695 489.428 496.099C490.441 496.504 491.336 496.993 492.383 497.347C493.348 497.592 494.341 497.711 495.337 497.701C496.388 497.777 497.443 497.777 498.494 497.701C499.584 497.532 500.658 497.267 501.701 496.909C502.805 496.622 503.937 496.458 505.077 496.42C506.064 496.17 506.952 495.629 507.626 494.868C508.359 494.155 509.031 493.383 509.635 492.559C509.889 492.272 510.361 492.39 510.699 492.171C511.118 491.876 511.565 491.622 512.033 491.412C512.488 491.184 512.992 491.068 513.501 491.075L515.392 491.159C516.52 491.21 517.65 491.159 518.768 491.008C519.837 490.988 520.899 491.183 521.891 491.581C522.805 491.851 523.744 492.026 524.694 492.103L524.508 490.367Z" fill="#F2F2F2"/>
</svg>
